<svg width="33" height="33" viewBox="0 0 33 33" fill="none" xmlns="http://www.w3.org/2000/svg">
<path d="M23.9766 1.99805H9.02344C7.88584 1.99805 6.96094 2.92295 6.96094 4.06055V28.8105C6.96094 29.9481 7.88584 30.873 9.02344 30.873H23.9766C25.1142 30.873 26.0391 29.9481 26.0391 28.8105V4.06055C26.0391 2.92295 25.1142 1.99805 23.9766 1.99805ZM23.7188 28.5527H9.28125V4.31836H23.7188V28.5527ZM15.2109 25.2656C15.2109 25.6075 15.3467 25.9354 15.5885 26.1771C15.8302 26.4189 16.1581 26.5547 16.5 26.5547C16.8419 26.5547 17.1698 26.4189 17.4115 26.1771C17.6533 25.9354 17.7891 25.6075 17.7891 25.2656C17.7891 24.9237 17.6533 24.5959 17.4115 24.3541C17.1698 24.1124 16.8419 23.9766 16.5 23.9766C16.1581 23.9766 15.8302 24.1124 15.5885 24.3541C15.3467 24.5959 15.2109 24.9237 15.2109 25.2656Z" fill="white"/>
</svg>
