<svg width="500" height="500" viewBox="0 0 500 500" fill="none" xmlns="http://www.w3.org/2000/svg">
<path d="M105.845 165.21C109.927 185.932 96.4 206.048 75.631 210.142C54.861 214.235 34.714 200.754 30.631 180.032C26.547 159.31 40.074 139.194 60.844 135.102C81.614 131.008 101.762 144.489 105.845 165.21Z" fill="#F5F5F5"/>
<path d="M96.897 166.974C100.009 182.764 89.7 198.094 73.872 201.214C58.045 204.333 42.691 194.06 39.58 178.269C36.469 162.477 46.777 147.147 62.605 144.028C78.431 140.91 93.785 151.182 96.897 166.974Z" fill="#EBEBEB"/>
<path d="M96.713 166.077C96.54 166.118 96.17 164.884 95.276 162.78C94.374 160.691 92.885 157.706 90.239 154.648C88.919 153.126 87.319 151.592 85.418 150.188C83.508 148.803 81.314 147.526 78.845 146.568C77.614 146.085 76.322 145.662 74.973 145.354C73.627 145.038 72.232 144.792 70.799 144.684C69.369 144.572 67.903 144.536 66.423 144.649C64.944 144.759 63.452 144.977 61.964 145.308C60.48 145.66 59.041 146.115 57.663 146.661C56.282 147.207 54.979 147.878 53.74 148.604C52.497 149.328 51.35 150.158 50.277 151.03C49.198 151.896 48.221 152.842 47.324 153.813C45.522 155.753 44.105 157.861 42.993 159.941C41.897 162.033 41.128 164.112 40.604 166.059C39.562 169.965 39.526 173.299 39.627 175.572C39.743 177.855 39.949 179.126 39.775 179.164C39.648 179.196 39.151 177.987 38.76 175.662C38.387 173.35 38.167 169.866 39.064 165.691C39.515 163.612 40.24 161.373 41.335 159.107C42.445 156.853 43.9 154.559 45.791 152.436C46.731 151.373 47.763 150.34 48.91 149.389C50.051 148.433 51.277 147.523 52.608 146.729C53.936 145.932 55.339 145.198 56.826 144.601C58.311 144.002 59.863 143.508 61.463 143.13C63.068 142.772 64.678 142.54 66.276 142.429C67.874 142.317 69.457 142.366 70.999 142.502C72.543 142.635 74.044 142.919 75.487 143.281C76.933 143.635 78.314 144.114 79.624 144.659C82.251 145.743 84.562 147.17 86.546 148.714C88.518 150.274 90.15 151.972 91.465 153.645C94.096 157.009 95.42 160.239 96.096 162.482C96.761 164.744 96.841 166.049 96.713 166.077Z" fill="#E0E0E0"/>
<path d="M74.848 189.076L75.904 194.054L71.46 194.995L70.433 190.152C65.977 190.818 61.463 190.337 58.614 188.944L59.907 183.004C62.478 184.178 65.932 184.698 69.199 184.331L67.624 176.909C62.437 176.757 56.578 176.281 55.23 169.925C54.231 165.214 56.795 160.445 63.646 158.156L62.6 153.222L67.044 152.279L68.071 157.124C71.461 156.684 74.892 156.884 77.666 157.921L76.604 163.859C74.064 163.051 71.593 162.786 69.314 162.989L70.917 170.545C76.094 170.653 81.866 171.149 83.194 177.414C84.176 182.036 81.646 186.752 74.848 189.076ZM66.239 170.375L64.899 164.065C62.658 165.098 61.998 166.585 62.309 168.051C62.639 169.606 64.151 170.169 66.239 170.375ZM76.155 179.465C75.825 177.908 74.357 177.339 72.304 177.076L73.605 183.209C75.723 182.249 76.456 180.887 76.155 179.465Z" fill="#E0E0E0"/>
<path d="M208.603 301.124C210.991 313.244 203.079 325.01 190.931 327.404C178.783 329.798 166.999 321.913 164.61 309.793C162.221 297.673 170.133 285.907 182.282 283.513C194.43 281.119 206.215 289.004 208.603 301.124Z" fill="#F5F5F5"/>
<path d="M203.369 302.155C205.189 311.391 199.16 320.357 189.902 322.182C180.645 324.006 171.664 317.997 169.844 308.762C168.024 299.525 174.054 290.559 183.311 288.735C192.569 286.91 201.549 292.919 203.369 302.155Z" fill="#EBEBEB"/>
<path d="M203.262 301.631C203.161 301.655 202.945 300.933 202.422 299.702C201.894 298.48 201.023 296.735 199.476 294.945C198.704 294.055 197.768 293.157 196.657 292.336C195.54 291.526 194.257 290.779 192.813 290.219C192.093 289.936 191.337 289.689 190.548 289.509C189.761 289.324 188.945 289.18 188.107 289.117C187.27 289.051 186.413 289.03 185.547 289.096C184.682 289.16 183.809 289.288 182.939 289.481C182.071 289.687 181.23 289.953 180.423 290.273C179.615 290.592 178.853 290.985 178.129 291.409C177.402 291.832 176.731 292.318 176.103 292.828C175.472 293.335 174.9 293.888 174.376 294.456C173.322 295.591 172.493 296.823 171.843 298.04C171.202 299.264 170.752 300.48 170.446 301.618C169.836 303.902 169.815 305.853 169.875 307.182C169.943 308.517 170.063 309.261 169.962 309.283C169.888 309.302 169.597 308.594 169.369 307.235C169.151 305.883 169.022 303.845 169.547 301.403C169.811 300.187 170.235 298.878 170.875 297.552C171.525 296.234 172.375 294.892 173.481 293.65C174.031 293.028 174.635 292.424 175.305 291.868C175.972 291.309 176.689 290.777 177.468 290.312C178.245 289.846 179.065 289.416 179.935 289.067C180.804 288.717 181.711 288.428 182.647 288.207C183.586 287.997 184.528 287.862 185.462 287.797C186.397 287.731 187.322 287.76 188.225 287.84C189.128 287.918 190.006 288.084 190.85 288.296C191.696 288.503 192.504 288.783 193.27 289.102C194.806 289.736 196.158 290.571 197.319 291.474C198.473 292.387 199.427 293.379 200.196 294.358C201.735 296.325 202.51 298.215 202.904 299.527C203.289 300.851 203.336 301.614 203.262 301.631Z" fill="#E0E0E0"/>
<path d="M190.473 315.083L191.091 317.994L188.492 318.545L187.891 315.712C185.285 316.101 182.644 315.82 180.978 315.005L181.734 311.53C183.238 312.216 185.258 312.521 187.168 312.306L186.247 307.965C183.213 307.876 179.786 307.598 178.998 303.88C178.414 301.125 179.913 298.335 183.921 296.997L183.309 294.111L185.909 293.559L186.51 296.393C188.492 296.135 190.5 296.253 192.122 296.859L191.501 300.332C190.015 299.86 188.57 299.704 187.237 299.823L188.175 304.242C191.203 304.305 194.579 304.595 195.356 308.26C195.928 310.965 194.449 313.723 190.473 315.083ZM185.437 304.145L184.653 300.454C183.342 301.058 182.956 301.928 183.138 302.786C183.332 303.695 184.216 304.024 185.437 304.145ZM191.237 309.461C191.044 308.551 190.186 308.217 188.985 308.064L189.746 311.651C190.985 311.09 191.413 310.293 191.237 309.461Z" fill="#E0E0E0"/>
<path d="M438.991 237.424L437.828 242.256L433.513 241.218L434.645 236.515C430.437 235.228 426.66 232.905 424.734 230.479L428.373 225.787C430.146 227.902 432.973 229.815 436.006 230.865L437.739 223.66C433.232 221.343 428.265 218.459 429.75 212.29C430.852 207.717 435.117 204.591 442.121 205.455L443.273 200.666L447.587 201.704L446.455 206.407C449.628 207.444 452.57 209.065 454.579 211.146L451.145 215.932C449.246 214.152 447.178 212.878 445.085 212.101L443.319 219.435C447.838 221.709 452.717 224.572 451.253 230.655C450.173 235.142 445.961 238.234 438.991 237.424ZM439.265 217.318L440.74 211.192C438.33 211.16 437.122 212.193 436.779 213.616C436.416 215.125 437.513 216.257 439.265 217.318ZM444.183 229.5C444.546 227.99 443.494 226.87 441.794 225.776L440.36 231.729C442.632 231.774 443.851 230.881 444.183 229.5Z" fill="#EBEBEB"/>
<path d="M453.01 123.388L453.389 131.964L445.732 132.302L445.364 123.956C437.762 123.831 430.385 121.778 426.028 118.672L429.826 109.144C433.78 111.809 439.384 113.632 444.921 113.925L444.357 101.137C435.766 99.445 426.146 97.031 425.663 86.081C425.305 77.965 430.895 70.737 442.931 68.824L442.556 60.325L450.213 59.987L450.581 68.333C456.344 68.539 462.001 69.824 466.331 72.318L462.919 81.905C458.915 79.857 454.876 78.731 451.027 78.441L451.602 91.458C460.189 93.074 469.655 95.494 470.131 106.29C470.482 114.255 464.969 121.402 453.01 123.388ZM443.859 89.883L443.38 79.01C439.361 80.108 437.852 82.4 437.963 84.927C438.081 87.606 440.443 88.959 443.859 89.883ZM457.844 107.755C457.726 105.075 455.442 103.718 452.099 102.714L452.565 113.281C456.355 112.27 457.952 110.205 457.844 107.755Z" fill="#EBEBEB"/>
<path d="M481.976 453.36C481.976 453.504 378.108 453.62 250.011 453.62C121.869 453.62 18.024 453.503 18.024 453.36C18.024 453.216 121.869 453.1 250.011 453.1C378.108 453.1 481.976 453.216 481.976 453.36Z" fill="#263238"/>
<path d="M407.898 289.713H92.148C88.166 289.713 84.938 286.485 84.938 282.503V49.245C84.938 45.263 88.166 42.035 92.148 42.035H407.898C411.88 42.035 415.108 45.263 415.108 49.245V282.503C415.108 286.485 411.88 289.713 407.898 289.713Z" fill="white"/>
<path d="M407.898 289.713C407.881 289.656 408.944 289.84 410.757 289.091C411.636 288.695 412.693 288.024 413.57 286.877C414.465 285.755 415.101 284.111 415.055 282.21C415.044 274.59 415.027 263.36 415.006 248.899C414.986 219.966 414.958 178.109 414.923 126.387C414.918 113.456 414.912 99.908 414.906 85.792C414.903 78.734 414.901 71.534 414.898 64.197C414.897 60.529 414.896 56.827 414.894 53.091C414.894 52.157 414.893 51.221 414.893 50.283C414.897 49.336 414.909 48.422 414.673 47.534C414.234 45.759 413.054 44.174 411.465 43.236C410.674 42.764 409.786 42.452 408.87 42.326C407.963 42.207 406.99 42.265 406.035 42.251C404.118 42.251 402.193 42.252 400.26 42.253C396.394 42.254 392.497 42.255 388.568 42.256C380.711 42.258 372.73 42.26 364.63 42.262C348.431 42.266 331.759 42.269 314.663 42.273C246.276 42.279 171.091 42.286 92.174 42.294C89.786 42.277 87.446 43.57 86.226 45.619C85.596 46.625 85.252 47.798 85.211 48.98C85.184 50.188 85.203 51.429 85.197 52.651C85.197 57.555 85.197 62.444 85.197 67.316C85.197 77.061 85.196 86.742 85.196 96.352C85.195 115.572 85.193 134.511 85.192 153.12C85.187 190.338 85.182 226.238 85.177 260.437C85.176 264.712 85.175 268.96 85.174 273.181C85.174 275.292 85.173 277.395 85.173 279.492C85.175 280.539 85.177 281.584 85.179 282.627C85.197 283.638 85.438 284.641 85.879 285.546C86.746 287.369 88.447 288.757 90.391 289.246C91.358 289.516 92.368 289.477 93.409 289.479C94.44 289.479 95.469 289.479 96.496 289.48C100.604 289.481 104.684 289.482 108.735 289.483C124.936 289.487 140.663 289.492 155.87 289.496C186.283 289.508 214.612 289.518 240.474 289.528C292.195 289.563 334.05 289.591 362.979 289.611C377.439 289.632 388.667 289.649 396.285 289.66C400.089 289.671 402.991 289.68 404.947 289.686C406.899 289.695 407.898 289.713 407.898 289.713C407.898 289.713 406.898 289.731 404.947 289.74C402.991 289.746 400.089 289.755 396.285 289.766C388.667 289.777 377.438 289.794 362.979 289.815C334.05 289.835 292.195 289.863 240.474 289.898C214.612 289.908 186.283 289.918 155.87 289.93C140.663 289.934 124.936 289.939 108.735 289.943C104.685 289.944 100.605 289.945 96.496 289.946C95.469 289.946 94.44 289.946 93.409 289.947C92.395 289.945 91.312 289.988 90.274 289.701C88.199 289.179 86.385 287.701 85.457 285.755C84.986 284.789 84.728 283.717 84.708 282.639C84.706 281.593 84.703 280.545 84.701 279.495C84.7 277.398 84.7 275.295 84.7 273.184C84.699 268.963 84.698 264.715 84.698 260.44C84.693 226.241 84.688 190.342 84.683 153.123C84.682 134.514 84.68 115.575 84.679 96.355C84.679 86.745 84.678 77.064 84.678 67.319C84.678 62.447 84.678 57.558 84.678 52.654C84.684 51.424 84.664 50.21 84.692 48.964C84.736 47.693 85.107 46.431 85.783 45.35C87.093 43.149 89.613 41.757 92.175 41.776C171.092 41.783 246.277 41.79 314.664 41.797C331.761 41.801 348.432 41.804 364.631 41.808C372.73 41.81 380.712 41.812 388.569 41.814C392.498 41.815 396.395 41.816 400.261 41.817C402.194 41.818 404.119 41.818 406.036 41.819C406.995 41.835 407.943 41.773 408.931 41.9C409.904 42.035 410.848 42.367 411.688 42.869C413.374 43.866 414.626 45.548 415.09 47.433C415.341 48.375 415.326 49.362 415.321 50.286C415.321 51.224 415.32 52.16 415.32 53.094C415.319 56.83 415.317 60.532 415.316 64.2C415.313 71.536 415.311 78.737 415.308 85.795C415.302 99.911 415.296 113.459 415.291 126.39C415.256 178.111 415.228 219.969 415.208 248.902C415.187 263.363 415.17 274.593 415.159 282.213C415.197 284.133 414.543 285.801 413.632 286.928C412.739 288.082 411.667 288.751 410.777 289.142C409.874 289.532 409.128 289.622 408.641 289.69C408.148 289.71 407.898 289.713 407.898 289.713Z" fill="#263238"/>
<path d="M391.327 145.199H262.986C258.45 145.199 254.773 141.522 254.773 136.985V87.961C254.773 83.425 258.45 79.747 262.986 79.747H391.327C395.863 79.747 399.541 83.424 399.541 87.961V136.986C399.54 141.522 395.863 145.199 391.327 145.199Z" fill="#E8505B"/>
<g opacity="0.2">
<path d="M332.89 109.732V112.328H330.572V109.802C328.278 109.663 326.076 108.945 324.801 107.948L326.075 105.12C327.234 105.978 328.903 106.603 330.571 106.766V102.895C327.999 102.27 325.125 101.412 325.125 98.097C325.125 95.641 326.909 93.531 330.571 93.114V90.54H332.889V93.066C334.627 93.205 336.32 93.669 337.594 94.48L336.435 97.331C335.253 96.659 334.048 96.265 332.889 96.126V100.066C335.461 100.669 338.289 101.527 338.289 104.795C338.291 107.205 336.529 109.291 332.89 109.732ZM330.572 99.487V96.196C329.343 96.474 328.857 97.146 328.857 97.911C328.857 98.722 329.552 99.162 330.572 99.487ZM334.559 105.073C334.559 104.261 333.886 103.821 332.89 103.473V106.672C334.049 106.417 334.559 105.815 334.559 105.073Z" fill="white"/>
</g>
<g opacity="0.2">
<path d="M343.998 126.099V128.109H342.204V126.153C340.428 126.046 338.722 125.489 337.736 124.717L338.722 122.528C339.619 123.192 340.912 123.676 342.204 123.802V120.805C340.212 120.321 337.987 119.657 337.987 117.09C337.987 115.188 339.369 113.555 342.204 113.232V111.24H343.998V113.196C345.344 113.303 346.654 113.662 347.641 114.291L346.745 116.498C345.83 115.977 344.896 115.672 343.999 115.565V118.615C345.991 119.082 348.181 119.746 348.181 122.276C348.179 124.142 346.815 125.758 343.998 126.099ZM342.204 118.167V115.619C341.253 115.834 340.876 116.355 340.876 116.947C340.876 117.575 341.414 117.916 342.204 118.167ZM345.29 122.492C345.29 121.864 344.769 121.523 343.998 121.254V123.731C344.895 123.533 345.29 123.066 345.29 122.492Z" fill="white"/>
</g>
<path d="M357.742 107.333C357.755 107.336 357.766 107.476 357.777 107.744C357.784 108.054 357.794 108.441 357.805 108.919C357.814 109.998 357.826 111.481 357.842 113.333C357.84 117.165 357.838 122.51 357.836 128.817L357.787 128.672C358.514 129.44 359.677 129.938 360.834 130.236C362.013 130.535 363.272 130.663 364.559 130.664C367.096 130.667 369.87 130.044 372.027 128.429L371.937 128.626V128.607C371.955 120.685 371.971 113.345 371.984 107.333L371.999 107.412C371.775 106.974 371.301 106.582 370.847 106.303C370.376 106.017 369.866 105.822 369.363 105.653C368.344 105.345 367.332 105.198 366.378 105.136C364.468 105.01 362.794 105.14 361.46 105.412C360.127 105.7 359.147 106.161 358.56 106.585C358.266 106.796 358.062 106.985 357.934 107.122C357.807 107.26 357.752 107.336 357.742 107.333C357.72 107.326 357.898 106.949 358.483 106.483C359.061 106.015 360.052 105.504 361.406 105.175C362.761 104.861 364.456 104.696 366.399 104.793C367.371 104.841 368.41 104.975 369.476 105.283C370.512 105.631 371.687 106.061 372.394 107.254L372.409 107.28V107.334C372.422 113.345 372.439 120.685 372.456 128.608V128.627V128.757L372.366 128.824C370.024 130.577 367.191 131.171 364.556 131.173C363.237 131.168 361.939 131.032 360.708 130.714C359.485 130.375 358.306 129.915 357.411 128.961L357.361 128.908L357.362 128.816C357.443 122.489 357.512 117.128 357.562 113.284C357.602 111.439 357.634 109.961 357.658 108.886C357.676 108.414 357.69 108.032 357.702 107.726C357.716 107.463 357.729 107.329 357.742 107.333Z" fill="white"/>
<path d="M372.197 107.369C372.227 107.414 371.569 107.988 370.302 108.621C369.042 109.273 367.075 109.727 364.928 109.7C362.793 109.72 360.812 109.381 359.529 108.758C358.243 108.161 357.572 107.605 357.6 107.559C357.643 107.48 358.392 107.927 359.669 108.417C360.941 108.93 362.823 109.196 364.929 109.179C367.03 109.202 368.895 108.828 370.153 108.284C371.416 107.758 372.151 107.293 372.197 107.369Z" fill="white"/>
<path d="M372.197 112.683C372.227 112.728 371.569 113.302 370.302 113.935C369.042 114.587 367.075 115.041 364.928 115.014C362.793 115.034 360.812 114.695 359.529 114.072C358.243 113.475 357.572 112.919 357.6 112.874C357.643 112.795 358.392 113.242 359.669 113.732C360.941 114.245 362.823 114.511 364.929 114.494C367.03 114.517 368.895 114.144 370.153 113.599C371.416 113.072 372.151 112.607 372.197 112.683Z" fill="white"/>
<path d="M372.197 117.997C372.227 118.042 371.569 118.616 370.302 119.249C369.042 119.901 367.075 120.355 364.928 120.328C362.793 120.348 360.812 120.009 359.529 119.386C358.243 118.789 357.572 118.233 357.6 118.188C357.643 118.109 358.392 118.556 359.669 119.046C360.941 119.559 362.823 119.824 364.929 119.808C367.03 119.831 368.895 119.458 370.153 118.913C371.416 118.386 372.151 117.921 372.197 117.997Z" fill="white"/>
<path d="M372.197 123.311C372.227 123.356 371.569 123.93 370.302 124.563C369.042 125.215 367.075 125.669 364.928 125.642C362.793 125.662 360.812 125.323 359.529 124.7C358.243 124.103 357.572 123.547 357.6 123.501C357.643 123.422 358.392 123.869 359.669 124.359C360.941 124.872 362.823 125.137 364.929 125.121C367.03 125.144 368.895 124.77 370.153 124.226C371.416 123.7 372.151 123.235 372.197 123.311Z" fill="white"/>
<path d="M372.262 96.436C372.276 96.44 372.288 96.654 372.3 97.063C372.308 97.511 372.318 98.107 372.331 98.859C372.341 100.467 372.355 102.736 372.372 105.573C372.37 111.344 372.368 119.415 372.365 128.817L372.314 128.666C373.058 129.451 374.247 129.954 375.418 130.246C376.611 130.545 377.876 130.666 379.162 130.662C381.697 130.65 384.431 130.018 386.546 128.429L386.456 128.626V128.608C386.482 116.192 386.506 104.882 386.524 96.438L386.538 96.509C386.303 96.054 385.82 95.656 385.352 95.377C384.873 95.084 384.35 94.892 383.84 94.726C382.806 94.417 381.783 94.281 380.825 94.217C378.904 94.105 377.235 94.235 375.912 94.518C374.589 94.813 373.628 95.278 373.054 95.698C372.767 95.908 372.57 96.096 372.445 96.23C372.324 96.365 372.271 96.439 372.262 96.436C372.253 96.433 372.293 96.342 372.403 96.192C372.516 96.043 372.705 95.838 372.988 95.608C373.554 95.149 374.524 94.64 375.865 94.308C377.205 93.987 378.894 93.825 380.844 93.909C381.819 93.96 382.865 94.084 383.942 94.391C384.988 94.732 386.183 95.166 386.897 96.364L386.911 96.387V96.436C386.929 104.88 386.953 116.19 386.979 128.606V128.624V128.753L386.889 128.821C384.59 130.546 381.799 131.153 379.165 131.174C377.847 131.176 376.543 131.05 375.296 130.734C374.056 130.403 372.851 129.944 371.926 128.965L371.874 128.91L371.875 128.814C371.955 119.391 372.024 111.302 372.074 105.518C372.116 102.688 372.15 100.425 372.174 98.821C372.194 98.076 372.209 97.486 372.221 97.042C372.234 96.64 372.248 96.433 372.262 96.436Z" fill="white"/>
<path d="M386.717 107.369C386.747 107.414 386.089 107.988 384.822 108.621C383.562 109.273 381.595 109.727 379.448 109.7C377.313 109.72 375.332 109.381 374.049 108.758C372.763 108.161 372.092 107.605 372.12 107.559C372.163 107.48 372.912 107.927 374.189 108.417C375.461 108.93 377.343 109.196 379.449 109.179C381.55 109.202 383.414 108.828 384.673 108.284C385.936 107.758 386.671 107.293 386.717 107.369Z" fill="white"/>
<path d="M386.717 112.683C386.747 112.728 386.089 113.302 384.822 113.935C383.562 114.587 381.595 115.041 379.448 115.014C377.313 115.034 375.332 114.695 374.049 114.072C372.763 113.475 372.092 112.919 372.12 112.874C372.163 112.795 372.912 113.242 374.189 113.732C375.461 114.245 377.343 114.511 379.449 114.494C381.55 114.517 383.414 114.144 384.673 113.599C385.936 113.072 386.671 112.607 386.717 112.683Z" fill="white"/>
<path d="M386.717 101.923C386.747 101.968 386.089 102.542 384.822 103.175C383.562 103.827 381.595 104.281 379.448 104.254C377.313 104.274 375.332 103.935 374.049 103.312C372.763 102.715 372.092 102.159 372.12 102.113C372.163 102.034 372.912 102.481 374.189 102.971C375.461 103.484 377.343 103.75 379.449 103.733C381.55 103.756 383.414 103.382 384.673 102.838C385.936 102.312 386.671 101.847 386.717 101.923Z" fill="white"/>
<path d="M386.717 96.436C386.747 96.481 386.089 97.055 384.822 97.688C383.562 98.341 381.595 98.794 379.448 98.767C377.313 98.787 375.332 98.448 374.049 97.825C372.763 97.228 372.092 96.672 372.12 96.626C372.163 96.547 372.912 96.994 374.189 97.484C375.461 97.997 377.343 98.263 379.449 98.246C381.55 98.269 383.414 97.895 384.673 97.351C385.936 96.825 386.671 96.36 386.717 96.436Z" fill="white"/>
<path d="M386.717 117.997C386.747 118.042 386.089 118.616 384.822 119.249C383.562 119.901 381.595 120.355 379.448 120.328C377.313 120.348 375.332 120.009 374.049 119.386C372.763 118.789 372.092 118.233 372.12 118.188C372.163 118.109 372.912 118.556 374.189 119.046C375.461 119.559 377.343 119.824 379.449 119.808C381.55 119.831 383.414 119.458 384.673 118.913C385.936 118.386 386.671 117.921 386.717 117.997Z" fill="white"/>
<path d="M386.717 123.311C386.747 123.356 386.089 123.93 384.822 124.563C383.562 125.215 381.595 125.669 379.448 125.642C377.313 125.662 375.332 125.323 374.049 124.7C372.763 124.103 372.092 123.547 372.12 123.501C372.163 123.422 372.912 123.869 374.189 124.359C375.461 124.872 377.343 125.137 379.449 125.121C381.55 125.144 383.414 124.77 384.673 124.226C385.936 123.7 386.671 123.235 386.717 123.311Z" fill="white"/>
<path d="M240.385 145.199H112.055C107.516 145.199 103.836 141.519 103.836 136.98V87.966C103.836 83.427 107.516 79.747 112.055 79.747H240.385C244.924 79.747 248.604 83.427 248.604 87.966V136.98C248.603 141.52 244.924 145.199 240.385 145.199Z" fill="#E0E0E0"/>
<path d="M171.317 109.682V112.278H168.999V109.752C166.704 109.613 164.502 108.895 163.228 107.898L164.503 105.07C165.662 105.928 167.331 106.553 169 106.716V102.845C166.427 102.22 163.553 101.362 163.553 98.047C163.553 95.591 165.338 93.481 169 93.064V90.49H171.318V93.016C173.056 93.155 174.748 93.619 176.023 94.43L174.864 97.281C173.682 96.609 172.477 96.215 171.318 96.076V100.016C173.891 100.619 176.718 101.477 176.718 104.745C176.717 107.155 174.956 109.241 171.317 109.682ZM168.999 99.437V96.146C167.77 96.424 167.284 97.096 167.284 97.861C167.284 98.672 167.979 99.112 168.999 99.437ZM172.985 105.023C172.985 104.212 172.313 103.771 171.317 103.423V106.622C172.476 106.367 172.985 105.765 172.985 105.023Z" fill="#EBEBEB"/>
<path d="M182.426 126.048V128.058H180.632V126.102C178.855 125.995 177.15 125.438 176.164 124.666L177.151 122.477C178.049 123.14 179.34 123.625 180.633 123.751V120.754C178.641 120.269 176.416 119.606 176.416 117.04C176.416 115.138 177.798 113.505 180.633 113.182V111.19H182.427V113.146C183.773 113.253 185.083 113.612 186.07 114.24L185.173 116.448C184.258 115.927 183.325 115.622 182.428 115.515V118.565C184.42 119.032 186.609 119.695 186.609 122.226C186.607 124.092 185.243 125.707 182.426 126.048ZM180.632 118.117V115.569C179.681 115.784 179.304 116.305 179.304 116.897C179.303 117.525 179.842 117.866 180.632 118.117ZM183.718 122.441C183.718 121.813 183.197 121.472 182.426 121.203V123.679C183.323 123.482 183.718 123.015 183.718 122.441Z" fill="#EBEBEB"/>
<path d="M116.781 102.889H115.114V102.455H118.949V102.889H117.282V107.198H116.781V102.889Z" fill="#263238"/>
<path d="M118.914 105.416C118.914 104.359 119.686 103.607 120.73 103.607C121.773 103.607 122.539 104.359 122.539 105.416C122.539 106.473 121.773 107.231 120.73 107.231C119.686 107.231 118.914 106.473 118.914 105.416ZM122.05 105.416C122.05 104.582 121.488 104.027 120.729 104.027C119.97 104.027 119.401 104.583 119.401 105.416C119.401 106.249 119.97 106.805 120.729 106.805C121.488 106.804 122.05 106.249 122.05 105.416Z" fill="#263238"/>
<path d="M125.396 106.981C125.206 107.15 124.922 107.232 124.644 107.232C123.973 107.232 123.6 106.853 123.6 106.195V104.041H122.963V103.635H123.6V102.856H124.081V103.635H125.165V104.041H124.081V106.168C124.081 106.588 124.298 106.818 124.698 106.818C124.894 106.818 125.091 106.757 125.226 106.635L125.396 106.981Z" fill="#263238"/>
<path d="M128.959 104.989V107.198H128.498V106.642C128.281 107.008 127.861 107.231 127.272 107.231C126.466 107.231 125.971 106.811 125.971 106.194C125.971 105.646 126.324 105.185 127.346 105.185H128.477V104.968C128.477 104.358 128.131 104.026 127.468 104.026C127.007 104.026 126.573 104.189 126.282 104.446L126.065 104.087C126.424 103.782 126.953 103.606 127.515 103.606C128.438 103.607 128.959 104.068 128.959 104.989ZM128.478 106.127V105.544H127.36C126.669 105.544 126.445 105.815 126.445 106.181C126.445 106.594 126.777 106.851 127.346 106.851C127.889 106.852 128.288 106.595 128.478 106.127Z" fill="#263238"/>
<path d="M130.266 102.171H130.747V107.198H130.266V102.171Z" fill="#263238"/>
<path d="M133.544 104.826C133.544 103.444 134.601 102.414 136.037 102.414C137.459 102.414 138.523 103.437 138.523 104.826C138.523 106.215 137.459 107.238 136.037 107.238C134.601 107.238 133.544 106.208 133.544 104.826ZM138.022 104.826C138.022 103.695 137.175 102.861 136.037 102.861C134.892 102.861 134.038 103.694 134.038 104.826C134.038 105.957 134.892 106.791 136.037 106.791C137.175 106.791 138.022 105.958 138.022 104.826Z" fill="#263238"/>
<path d="M141.34 103.607V104.075C141.3 104.075 141.259 104.068 141.225 104.068C140.479 104.068 140.026 104.542 140.026 105.382V107.197H139.545V103.634H140.005V104.332C140.229 103.858 140.683 103.607 141.34 103.607Z" fill="#263238"/>
<path d="M145.425 102.171V107.198H144.964V106.493C144.673 106.974 144.178 107.231 143.589 107.231C142.572 107.231 141.814 106.493 141.814 105.416C141.814 104.339 142.573 103.607 143.589 103.607C144.158 103.607 144.646 103.851 144.943 104.312V102.171H145.425ZM144.95 105.416C144.95 104.582 144.381 104.027 143.629 104.027C142.87 104.027 142.301 104.583 142.301 105.416C142.301 106.249 142.87 106.805 143.629 106.805C144.382 106.804 144.95 106.249 144.95 105.416Z" fill="#263238"/>
<path d="M149.867 105.565H146.886C146.94 106.31 147.509 106.805 148.289 106.805C148.723 106.805 149.108 106.649 149.379 106.338L149.65 106.65C149.332 107.029 148.837 107.232 148.275 107.232C147.164 107.232 146.405 106.473 146.405 105.417C146.405 104.36 147.144 103.608 148.146 103.608C149.149 103.608 149.874 104.347 149.874 105.417C149.874 105.456 149.867 105.511 149.867 105.565ZM146.886 105.206H149.413C149.352 104.508 148.844 104.02 148.146 104.02C147.456 104.02 146.947 104.508 146.886 105.206Z" fill="#263238"/>
<path d="M152.65 103.607V104.075C152.61 104.075 152.569 104.068 152.535 104.068C151.789 104.068 151.336 104.542 151.336 105.382V107.197H150.855V103.634H151.316V104.332C151.54 103.858 151.994 103.607 152.65 103.607Z" fill="#263238"/>
<path d="M121.584 113.216V127.935H118.178V115.95H115.234V113.217L121.584 113.216Z" fill="#263238"/>
<path d="M135.145 125.16V127.935H124.022V125.727L129.699 120.366C131.003 119.125 131.234 118.368 131.234 117.653C131.234 116.497 130.435 115.824 128.88 115.824C127.618 115.824 126.546 116.307 125.831 117.296L123.35 115.698C124.485 114.037 126.546 112.965 129.195 112.965C132.475 112.965 134.662 114.647 134.662 117.317C134.662 118.747 134.263 120.051 132.201 121.964L128.816 125.16H135.145Z" fill="#263238"/>
<path d="M136.508 120.576C136.508 115.719 139.2 112.965 142.816 112.965C146.454 112.965 149.124 115.719 149.124 120.576C149.124 125.433 146.454 128.188 142.816 128.188C139.199 128.187 136.508 125.433 136.508 120.576ZM145.697 120.576C145.697 117.233 144.519 115.845 142.816 115.845C141.134 115.845 139.957 117.233 139.957 120.576C139.957 123.919 141.134 125.307 142.816 125.307C144.519 125.307 145.697 123.919 145.697 120.576Z" fill="#263238"/>
<path d="M233.839 127.438H197.772C196.02 127.438 194.6 126.018 194.6 124.266V103.383C194.6 101.631 196.02 100.211 197.772 100.211H233.839C235.591 100.211 237.011 101.631 237.011 103.383V124.266C237.011 126.018 235.591 127.438 233.839 127.438Z" fill="#F5F5F5"/>
<path d="M206.326 105.224H199.411V107.738H206.326V105.224Z" fill="#E0E0E0"/>
<path d="M207.763 112.895C207.763 113.039 205.571 113.156 202.869 113.156C200.165 113.156 197.974 113.039 197.974 112.895C197.974 112.751 200.165 112.635 202.869 112.635C205.572 112.635 207.763 112.751 207.763 112.895Z" fill="#E0E0E0"/>
<path d="M214.464 112.895C214.464 113.039 213.368 113.156 212.017 113.156C210.665 113.156 209.569 113.039 209.569 112.895C209.569 112.751 210.665 112.635 212.017 112.635C213.368 112.635 214.464 112.751 214.464 112.895Z" fill="#E0E0E0"/>
<path d="M232.67 112.895C232.67 113.039 231.033 113.156 229.014 113.156C226.994 113.156 225.358 113.039 225.358 112.895C225.358 112.751 226.995 112.635 229.014 112.635C231.033 112.635 232.67 112.751 232.67 112.895Z" fill="#E0E0E0"/>
<path d="M223.63 112.895C223.63 113.039 222.048 113.156 220.098 113.156C218.147 113.156 216.566 113.039 216.566 112.895C216.566 112.751 218.147 112.635 220.098 112.635C222.048 112.635 223.63 112.751 223.63 112.895Z" fill="#E0E0E0"/>
<path d="M205.39 118.996C205.39 119.14 203.771 119.256 201.775 119.256C199.778 119.256 198.16 119.14 198.16 118.996C198.16 118.852 199.778 118.736 201.775 118.736C203.772 118.736 205.39 118.853 205.39 118.996Z" fill="#E0E0E0"/>
<path d="M211.528 121.594C211.528 121.738 208.535 121.854 204.844 121.854C201.152 121.854 198.16 121.737 198.16 121.594C198.16 121.451 201.152 121.334 204.844 121.334C208.535 121.334 211.528 121.45 211.528 121.594Z" fill="#E0E0E0"/>
<path d="M232.67 121.594C232.67 121.738 231.404 121.854 229.844 121.854C228.283 121.854 227.017 121.737 227.017 121.594C227.017 121.451 228.282 121.334 229.844 121.334C231.404 121.334 232.67 121.45 232.67 121.594Z" fill="#E0E0E0"/>
<path d="M267.718 105.187H266.051V104.753H269.886V105.187H268.219V109.496H267.718V105.187Z" fill="white"/>
<path d="M269.851 107.714C269.851 106.657 270.623 105.905 271.666 105.905C272.71 105.905 273.475 106.657 273.475 107.714C273.475 108.771 272.71 109.529 271.666 109.529C270.624 109.529 269.851 108.77 269.851 107.714ZM272.988 107.714C272.988 106.881 272.425 106.325 271.667 106.325C270.908 106.325 270.339 106.881 270.339 107.714C270.339 108.548 270.908 109.103 271.667 109.103C272.425 109.102 272.988 108.547 272.988 107.714Z" fill="white"/>
<path d="M276.334 109.279C276.145 109.448 275.86 109.529 275.582 109.529C274.911 109.529 274.539 109.15 274.539 108.492V106.338H273.902V105.932H274.539V105.153H275.019V105.932H276.103V106.338H275.019V108.465C275.019 108.885 275.236 109.115 275.636 109.115C275.832 109.115 276.029 109.054 276.164 108.932L276.334 109.279Z" fill="white"/>
<path d="M279.896 107.287V109.495H279.436V108.939C279.219 109.305 278.798 109.528 278.209 109.528C277.402 109.528 276.908 109.108 276.908 108.491C276.908 107.943 277.261 107.482 278.283 107.482H279.415V107.265C279.415 106.655 279.069 106.323 278.405 106.323C277.944 106.323 277.51 106.486 277.22 106.743L277.003 106.384C277.362 106.079 277.891 105.903 278.453 105.903C279.375 105.905 279.896 106.366 279.896 107.287ZM279.416 108.425V107.842H278.298C277.607 107.842 277.383 108.113 277.383 108.479C277.383 108.892 277.715 109.149 278.284 109.149C278.826 109.15 279.225 108.892 279.416 108.425Z" fill="white"/>
<path d="M281.203 104.469H281.684V109.496H281.203V104.469Z" fill="white"/>
<path d="M288.139 109.495L287.055 107.971C286.933 107.985 286.811 107.992 286.675 107.992H285.402V109.496H284.901V104.754H286.675C287.881 104.754 288.614 105.363 288.614 106.38C288.614 107.125 288.221 107.647 287.53 107.87L288.688 109.496L288.139 109.495ZM288.112 106.379C288.112 105.62 287.611 105.187 286.663 105.187H285.402V107.565H286.663C287.611 107.565 288.112 107.124 288.112 106.379Z" fill="white"/>
<path d="M292.799 107.863H289.819C289.873 108.608 290.442 109.103 291.221 109.103C291.655 109.103 292.04 108.947 292.312 108.636L292.583 108.948C292.265 109.327 291.77 109.53 291.208 109.53C290.097 109.53 289.338 108.771 289.338 107.715C289.338 106.658 290.076 105.906 291.079 105.906C292.082 105.906 292.807 106.645 292.807 107.715C292.806 107.754 292.799 107.808 292.799 107.863ZM289.819 107.504H292.345C292.284 106.806 291.777 106.318 291.078 106.318C290.387 106.318 289.879 106.806 289.819 107.504Z" fill="white"/>
<path d="M296.714 105.932L295.129 109.495H294.634L293.056 105.932H293.557L294.892 108.967L296.241 105.932H296.714Z" fill="white"/>
<path d="M300.392 107.863H297.412C297.466 108.608 298.035 109.103 298.814 109.103C299.248 109.103 299.633 108.947 299.905 108.636L300.176 108.948C299.858 109.327 299.363 109.53 298.801 109.53C297.69 109.53 296.931 108.771 296.931 107.715C296.931 106.658 297.669 105.906 298.672 105.906C299.675 105.906 300.4 106.645 300.4 107.715C300.399 107.754 300.392 107.808 300.392 107.863ZM297.412 107.504H299.938C299.878 106.806 299.37 106.318 298.671 106.318C297.98 106.318 297.472 106.806 297.412 107.504Z" fill="white"/>
<path d="M304.66 107.429V109.495H304.179V107.476C304.179 106.724 303.786 106.338 303.109 106.338C302.343 106.338 301.862 106.813 301.862 107.625V109.495H301.382V105.932H301.843V106.589C302.1 106.155 302.581 105.904 303.197 105.904C304.063 105.905 304.66 106.406 304.66 107.429Z" fill="white"/>
<path d="M309.176 105.932V109.495H308.715V108.845C308.465 109.279 308.004 109.529 307.435 109.529C306.528 109.529 305.931 109.021 305.931 107.998V105.932H306.412V107.951C306.412 108.71 306.805 109.096 307.482 109.096C308.227 109.096 308.695 108.615 308.695 107.802V105.932H309.176Z" fill="white"/>
<path d="M313.627 107.863H310.647C310.701 108.608 311.27 109.103 312.049 109.103C312.483 109.103 312.868 108.947 313.14 108.636L313.411 108.948C313.093 109.327 312.598 109.53 312.036 109.53C310.925 109.53 310.166 108.771 310.166 107.715C310.166 106.658 310.904 105.906 311.907 105.906C312.91 105.906 313.635 106.645 313.635 107.715C313.633 107.754 313.627 107.808 313.627 107.863ZM310.646 107.504H313.172C313.112 106.806 312.604 106.318 311.905 106.318C311.214 106.318 310.707 106.806 310.646 107.504Z" fill="white"/>
<path d="M271.644 128.053V129.723H270.154V128.098C268.679 128.009 267.261 127.546 266.442 126.905L267.261 125.087C268.007 125.638 269.08 126.041 270.154 126.145V123.656C268.499 123.253 266.65 122.702 266.65 120.57C266.65 118.99 267.798 117.633 270.154 117.365V115.71H271.644V117.335C272.762 117.424 273.851 117.723 274.67 118.245L273.925 120.078C273.164 119.646 272.39 119.392 271.644 119.303V121.838C273.299 122.226 275.118 122.777 275.118 124.879C275.118 126.428 273.985 127.77 271.644 128.053ZM270.154 121.464V119.347C269.364 119.526 269.05 119.958 269.05 120.45C269.05 120.973 269.498 121.256 270.154 121.464ZM272.718 125.057C272.718 124.536 272.285 124.252 271.644 124.029V126.086C272.39 125.922 272.718 125.534 272.718 125.057Z" fill="white"/>
<path d="M279.988 117.499V127.935H277.573V119.437H275.486V117.499H279.988Z" fill="white"/>
<path d="M289.691 124.655C289.691 126.504 288.334 128.113 285.353 128.113C283.907 128.113 282.386 127.711 281.373 126.995L282.327 125.146C283.117 125.742 284.205 126.085 285.294 126.085C286.501 126.085 287.246 125.578 287.246 124.729C287.246 123.909 286.71 123.372 284.816 123.372H282.147L282.684 117.498H289.049V119.436H284.696L284.532 121.419H285.382C288.468 121.42 289.691 122.806 289.691 124.655Z" fill="white"/>
<path d="M293.488 126.593C293.488 126.981 293.428 127.264 293.085 128.084L292.235 130.231H290.759L291.415 127.86C290.923 127.666 290.609 127.204 290.609 126.593C290.609 125.728 291.235 125.162 292.055 125.162C292.891 125.161 293.488 125.743 293.488 126.593Z" fill="white"/>
<path d="M294.38 122.717C294.38 119.273 296.288 117.321 298.853 117.321C301.432 117.321 303.326 119.274 303.326 122.717C303.326 126.161 301.432 128.113 298.853 128.113C296.289 128.113 294.38 126.16 294.38 122.717ZM300.895 122.717C300.895 120.347 300.061 119.363 298.853 119.363C297.661 119.363 296.826 120.347 296.826 122.717C296.826 125.088 297.661 126.071 298.853 126.071C300.061 126.071 300.895 125.087 300.895 122.717Z" fill="white"/>
<path d="M304.498 122.717C304.498 119.273 306.406 117.321 308.971 117.321C311.55 117.321 313.444 119.274 313.444 122.717C313.444 126.161 311.551 128.113 308.971 128.113C306.406 128.113 304.498 126.16 304.498 122.717ZM311.012 122.717C311.012 120.347 310.178 119.363 308.97 119.363C307.778 119.363 306.943 120.347 306.943 122.717C306.943 125.088 307.778 126.071 308.97 126.071C310.178 126.071 311.012 125.087 311.012 122.717Z" fill="white"/>
<path d="M314.615 122.717C314.615 119.273 316.523 117.321 319.088 117.321C321.667 117.321 323.561 119.274 323.561 122.717C323.561 126.161 321.667 128.113 319.088 128.113C316.523 128.113 314.615 126.16 314.615 122.717ZM321.129 122.717C321.129 120.347 320.295 119.363 319.087 119.363C317.895 119.363 317.06 120.347 317.06 122.717C317.06 125.088 317.895 126.071 319.087 126.071C320.296 126.071 321.129 125.087 321.129 122.717Z" fill="white"/>
<path d="M389.141 274.769C389.141 274.769 389.318 274.751 389.667 274.729C390.018 274.725 390.535 274.65 391.215 274.528C392.538 274.229 394.589 273.524 396.46 271.563C397.38 270.588 398.217 269.299 398.735 267.724C398.971 266.933 399.164 266.08 399.194 265.175C399.248 264.274 399.206 263.318 399.216 262.333C399.209 258.384 399.201 253.828 399.192 248.7C399.18 238.441 399.165 225.891 399.148 211.321C399.142 204.035 399.135 196.245 399.128 187.983C399.125 183.852 399.122 179.603 399.119 175.241C399.117 173.06 399.116 170.85 399.114 168.613C399.102 167.498 399.144 166.357 399.061 165.255C398.939 164.149 398.639 163.057 398.163 162.038C397.225 159.991 395.53 158.272 393.451 157.283C392.414 156.785 391.285 156.465 390.126 156.344C388.974 156.258 387.76 156.31 386.566 156.296C381.767 156.299 376.862 156.301 371.857 156.304C361.846 156.309 351.432 156.314 340.649 156.319C319.082 156.326 296.039 156.335 271.79 156.343C223.292 156.349 169.973 156.356 114.008 156.363C112.304 156.381 110.601 156.803 109.124 157.648C107.651 158.493 106.382 159.7 105.52 161.162C104.626 162.605 104.163 164.289 104.11 165.975C104.081 167.693 104.102 169.435 104.095 171.159C104.095 178.07 104.094 184.935 104.094 191.75C104.093 205.381 104.091 218.811 104.09 232.008C104.089 238.606 104.088 245.147 104.087 251.624C104.086 254.863 104.086 258.086 104.085 261.292V263.694C104.088 264.5 104.075 265.28 104.2 266.048C104.429 267.583 104.994 269.077 105.908 270.329C106.81 271.584 107.988 272.644 109.351 273.364C110.715 274.079 112.238 274.472 113.77 274.508C116.908 274.512 120.029 274.517 123.132 274.521C129.342 274.523 135.48 274.524 141.543 274.526C190.047 274.547 233.725 274.566 270.408 274.582C307.085 274.617 336.766 274.645 357.284 274.665C367.536 274.686 375.498 274.703 380.904 274.714C383.6 274.725 385.657 274.734 387.047 274.74C388.432 274.751 389.141 274.769 389.141 274.769C389.141 274.769 388.432 274.787 387.048 274.796C385.658 274.802 383.601 274.81 380.905 274.822C375.499 274.833 367.538 274.85 357.285 274.871C336.767 274.891 307.086 274.919 270.409 274.954C233.726 274.97 190.048 274.989 141.544 275.01C135.481 275.012 129.342 275.013 123.133 275.015C120.027 275.012 116.902 275.009 113.761 275.006C112.154 274.969 110.553 274.556 109.12 273.806C107.689 273.051 106.451 271.939 105.503 270.621C104.544 269.306 103.948 267.737 103.707 266.124C103.575 265.316 103.589 264.489 103.586 263.698V261.296C103.585 258.089 103.585 254.866 103.584 251.628C103.583 245.151 103.582 238.61 103.581 232.012C103.58 218.815 103.578 205.384 103.577 191.754C103.577 184.939 103.576 178.074 103.576 171.163C103.582 169.432 103.561 167.712 103.59 165.964C103.645 164.19 104.134 162.416 105.074 160.897C105.982 159.359 107.316 158.088 108.867 157.199C110.421 156.31 112.217 155.864 114.007 155.847C169.972 155.854 223.291 155.861 271.789 155.868C296.038 155.876 319.081 155.884 340.648 155.892C351.431 155.897 361.845 155.902 371.856 155.907C376.861 155.91 381.766 155.912 386.565 155.915C387.77 155.931 388.945 155.877 390.162 155.969C391.365 156.096 392.537 156.429 393.613 156.948C395.77 157.978 397.525 159.762 398.496 161.886C398.989 162.943 399.298 164.076 399.423 165.223C399.508 166.383 399.462 167.494 399.473 168.617C399.472 170.854 399.47 173.064 399.468 175.245C399.465 179.607 399.462 183.856 399.459 187.987C399.452 196.249 399.445 204.039 399.439 211.325C399.422 225.894 399.407 238.444 399.395 248.704C399.386 253.832 399.378 258.388 399.371 262.337C399.356 263.326 399.395 264.27 399.336 265.187C399.302 266.105 399.102 266.968 398.859 267.768C398.326 269.361 397.471 270.66 396.536 271.639C394.633 273.608 392.558 274.301 391.225 274.584C390.54 274.697 390.02 274.764 389.668 274.76C389.318 274.769 389.141 274.769 389.141 274.769Z" fill="#E0E0E0"/>
<path d="M203.775 229.969H194.173V268.078H203.775V229.969Z" fill="#EBEBEB"/>
<path d="M218.153 241.497H208.551V268.077H218.153V241.497Z" fill="#EBEBEB"/>
<path d="M189.99 241.497H180.388V268.077H189.99V241.497Z" fill="#EBEBEB"/>
<path d="M161.827 264.539H152.225V268.078H161.827V264.539Z" fill="#EBEBEB"/>
<path d="M176.101 259.202H166.499V268.077H176.101V259.202Z" fill="#EBEBEB"/>
<path d="M148.086 265.131H138.484V268.078H148.086V265.131Z" fill="#EBEBEB"/>
<path d="M133.664 265.131H124.062V268.078H133.664V265.131Z" fill="#EBEBEB"/>
<path d="M233.296 246.848H223.694V268.078H233.296V246.848Z" fill="#EBEBEB"/>
<path d="M248.439 252.68H238.837V268.078H248.439V252.68Z" fill="#EBEBEB"/>
<path d="M263.581 241.497H253.979V268.077H263.581V241.497Z" fill="#EBEBEB"/>
<path d="M278.724 224.899H269.122V268.078H278.724V224.899Z" fill="#EBEBEB"/>
<path d="M293.866 212.121H284.264V268.078H293.866V212.121Z" fill="#EBEBEB"/>
<path d="M309.009 229.969H299.407V268.078H309.009V229.969Z" fill="#EBEBEB"/>
<path d="M324.151 195.756H314.549V268.078H324.151V195.756Z" fill="#EBEBEB"/>
<path d="M339.294 229.969H329.692V268.078H339.294V229.969Z" fill="#EBEBEB"/>
<path d="M354.436 241.497H344.834V268.077H354.436V241.497Z" fill="#EBEBEB"/>
<path d="M369.579 246.489H359.977V268.078H369.579V246.489Z" fill="#EBEBEB"/>
<path d="M384.721 252.68H375.119V268.078H384.721V252.68Z" fill="#EBEBEB"/>
<path d="M131.947 268.078C131.947 268.078 132.267 268.06 132.89 268.051C133.527 268.045 134.451 268.037 135.659 268.025C138.106 268.014 141.691 267.997 146.305 267.976C147.461 267.972 148.681 267.968 149.964 267.964C151.249 267.972 152.586 267.948 153.974 267.76C156.739 267.396 159.714 266.485 162.468 264.732C163.846 263.864 165.134 262.75 166.254 261.424C167.347 260.087 168.089 258.418 168.871 256.742C170.37 253.343 171.73 249.649 173.12 245.76C174.48 241.858 175.905 237.769 177.389 233.51C178.143 231.383 178.904 229.21 179.777 227.026C180.685 224.855 181.714 222.673 183.062 220.627C184.415 218.59 186.033 216.664 187.969 215.024C189.899 213.383 192.146 212.043 194.602 211.139C197.057 210.227 199.715 209.802 202.398 209.766C205.075 209.757 207.809 209.995 210.469 210.755C211.807 211.102 213.095 211.645 214.355 212.252C215.58 212.926 216.796 213.658 217.859 214.601C220.046 216.417 221.74 218.799 223.072 221.35C224.418 223.917 225.197 226.74 226.094 229.507C226.969 232.291 227.848 235.101 228.828 237.903C230.8 243.485 233.051 249.154 236.478 254.215C238.195 256.72 240.262 259.071 242.865 260.698C244.15 261.533 245.607 262.082 247.105 262.38C247.853 262.56 248.624 262.566 249.393 262.61C250.169 262.566 250.954 262.601 251.726 262.493C253.836 262.303 255.919 261.791 257.755 260.794C259.597 259.804 261.088 258.281 262.304 256.595C263.515 254.894 264.527 253.053 265.558 251.235C266.588 249.428 267.486 247.558 268.312 245.67C271.592 238.1 273.63 230.21 276.694 222.934C278.141 219.272 279.634 215.661 281.521 212.309C283.384 208.948 285.711 205.9 288.404 203.327C289.754 202.058 291.175 200.836 292.775 199.926C294.332 198.943 296.045 198.292 297.743 197.71C301.181 196.638 304.738 196.304 308.172 196.443C311.61 196.595 314.954 197.24 318.045 198.37C321.132 199.509 323.927 201.222 326.248 203.304C330.934 207.445 334.337 212.297 338.221 216.142C342.054 220.063 346.796 222.3 351.203 223.754C355.652 225.192 359.894 225.831 363.677 226.13H363.668C371.32 226.156 377.226 226.176 381.234 226.19C383.222 226.204 384.737 226.215 385.769 226.223C386.788 226.234 387.308 226.257 387.308 226.257C387.308 226.257 386.788 226.28 385.769 226.291C384.737 226.298 383.222 226.309 381.234 226.324C377.226 226.338 371.321 226.358 363.668 226.384H363.664H363.659C359.858 226.104 355.593 225.482 351.107 224.051C346.666 222.605 341.861 220.361 337.965 216.4C334.042 212.536 330.624 207.696 325.979 203.613C323.675 201.558 320.943 199.893 317.897 198.774C314.849 197.667 311.545 197.036 308.153 196.892C304.764 196.761 301.257 197.096 297.882 198.155C294.504 199.216 291.345 201.072 288.735 203.676C286.081 206.218 283.791 209.224 281.95 212.553C280.086 215.873 278.604 219.462 277.162 223.122C274.112 230.379 272.087 238.248 268.787 245.88C267.956 247.781 267.051 249.668 266.012 251.494C264.982 253.311 263.968 255.162 262.729 256.903C261.488 258.628 259.933 260.221 258.01 261.255C256.094 262.296 253.937 262.822 251.779 263.016C250.987 263.127 250.19 263.092 249.398 263.136C248.599 263.092 247.792 263.083 247.011 262.896C245.446 262.586 243.925 262.008 242.596 261.145C239.901 259.458 237.797 257.053 236.055 254.512C232.583 249.377 230.328 243.678 228.351 238.074C227.369 235.262 226.491 232.446 225.618 229.661C224.721 226.885 223.952 224.094 222.634 221.579C221.328 219.073 219.675 216.747 217.548 214.977C216.514 214.058 215.331 213.345 214.139 212.686C212.911 212.093 211.655 211.561 210.345 211.219C207.745 210.471 205.045 210.232 202.409 210.237C199.775 210.269 197.17 210.682 194.765 211.571C189.916 213.318 186.065 216.849 183.429 220.865C180.766 224.911 179.3 229.41 177.775 233.645C176.279 237.901 174.844 241.986 173.474 245.885C172.071 249.774 170.699 253.468 169.18 256.879C168.386 258.563 167.64 260.239 166.5 261.625C165.352 262.973 164.035 264.102 162.632 264.978C159.826 266.747 156.81 267.653 154.013 268.007C152.612 268.191 151.25 268.206 149.971 268.191C148.688 268.187 147.468 268.183 146.312 268.179C141.698 268.158 138.113 268.141 135.666 268.13C134.458 268.119 133.534 268.11 132.897 268.104C132.266 268.096 131.947 268.078 131.947 268.078Z" fill="#E8505B"/>
<path d="M224.957 179.58H170.99C170.144 179.58 169.459 180.266 169.459 181.112V199.68C169.459 200.526 170.145 201.212 170.99 201.212H198.308C198.742 201.212 199.151 201.392 199.442 201.714C200.296 202.66 201.441 203.893 202.283 204.795C202.894 205.45 203.934 205.442 204.536 204.779L207.317 201.714C207.607 201.394 208.019 201.212 208.451 201.212H224.957C225.803 201.212 226.488 200.526 226.488 199.68V181.112C226.489 180.265 225.803 179.58 224.957 179.58Z" fill="#E8505B"/>
<path d="M165.782 232.455H120.789C120.286 232.455 119.878 232.863 119.878 233.366V244.411C119.878 244.914 120.286 245.322 120.789 245.322H137.039C137.297 245.322 137.541 245.429 137.713 245.621C138.221 246.184 138.902 246.917 139.403 247.454C139.767 247.844 140.385 247.839 140.743 247.444L142.397 245.621C142.57 245.431 142.815 245.322 143.072 245.322H165.782C166.285 245.322 166.693 244.914 166.693 244.411V233.366C166.693 232.863 166.285 232.455 165.782 232.455Z" fill="#F5F5F5"/>
<path d="M205.23 209.831C205.23 210.992 204.289 211.933 203.128 211.933C201.967 211.933 201.026 210.992 201.026 209.831C201.026 208.67 201.967 207.729 203.128 207.729C204.289 207.729 205.23 208.67 205.23 209.831Z" fill="#E8505B"/>
<path d="M203.129 211.957C201.957 211.957 201.002 211.003 201.002 209.831C201.002 208.659 201.956 207.705 203.129 207.705C204.301 207.705 205.255 208.659 205.255 209.831C205.255 211.003 204.301 211.957 203.129 211.957ZM203.129 207.754C201.984 207.754 201.052 208.686 201.052 209.831C201.052 210.976 201.984 211.908 203.129 211.908C204.274 211.908 205.206 210.976 205.206 209.831C205.206 208.686 204.274 207.754 203.129 207.754Z" fill="#263238"/>
<path d="M183.525 193.871V194.899H182.606V193.898C181.697 193.843 180.824 193.558 180.319 193.163L180.824 192.042C181.284 192.382 181.945 192.63 182.606 192.694V191.16C181.586 190.912 180.448 190.572 180.448 189.259C180.448 188.285 181.155 187.449 182.606 187.284V186.264H183.525V187.265C184.213 187.32 184.884 187.504 185.389 187.826L184.93 188.956C184.461 188.689 183.984 188.533 183.525 188.478V190.04C184.545 190.279 185.665 190.619 185.665 191.913C185.664 192.87 184.966 193.696 183.525 193.871ZM182.606 189.81V188.506C182.12 188.616 181.926 188.882 181.926 189.186C181.926 189.508 182.201 189.682 182.606 189.81ZM184.186 192.024C184.186 191.703 183.919 191.528 183.525 191.39V192.658C183.983 192.557 184.186 192.318 184.186 192.024Z" fill="white"/>
<path d="M188.667 187.367V193.797H187.179V188.561H185.893V187.367H188.667Z" fill="white"/>
<path d="M194.647 191.776C194.647 192.915 193.811 193.907 191.974 193.907C191.082 193.907 190.146 193.659 189.521 193.218L190.109 192.079C190.596 192.447 191.266 192.658 191.937 192.658C192.681 192.658 193.14 192.346 193.14 191.822C193.14 191.317 192.809 190.986 191.643 190.986H189.998L190.329 187.367H194.251V188.561H191.569L191.467 189.783H191.99C193.893 189.783 194.647 190.637 194.647 191.776Z" fill="white"/>
<path d="M196.987 192.971C196.987 193.21 196.95 193.384 196.739 193.89L196.215 195.213H195.306L195.71 193.753C195.407 193.633 195.214 193.349 195.214 192.972C195.214 192.439 195.6 192.09 196.106 192.09C196.619 192.089 196.987 192.447 196.987 192.971Z" fill="white"/>
<path d="M197.538 190.582C197.538 188.46 198.714 187.256 200.294 187.256C201.883 187.256 203.05 188.46 203.05 190.582C203.05 192.704 201.883 193.907 200.294 193.907C198.714 193.908 197.538 192.704 197.538 190.582ZM201.552 190.582C201.552 189.121 201.038 188.515 200.294 188.515C199.559 188.515 199.044 189.121 199.044 190.582C199.044 192.042 199.559 192.648 200.294 192.648C201.038 192.649 201.552 192.043 201.552 190.582Z" fill="white"/>
<path d="M203.774 190.582C203.774 188.46 204.95 187.256 206.53 187.256C208.119 187.256 209.286 188.46 209.286 190.582C209.286 192.704 208.119 193.907 206.53 193.907C204.949 193.908 203.774 192.704 203.774 190.582ZM207.787 190.582C207.787 189.121 207.273 188.515 206.529 188.515C205.794 188.515 205.279 189.121 205.279 190.582C205.279 192.042 205.794 192.648 206.529 192.648C207.274 192.649 207.787 192.043 207.787 190.582Z" fill="white"/>
<path d="M210.009 190.582C210.009 188.46 211.185 187.256 212.765 187.256C214.354 187.256 215.521 188.46 215.521 190.582C215.521 192.704 214.354 193.907 212.765 193.907C211.185 193.908 210.009 192.704 210.009 190.582ZM214.023 190.582C214.023 189.121 213.509 188.515 212.765 188.515C212.03 188.515 211.515 189.121 211.515 190.582C211.515 192.042 212.03 192.648 212.765 192.648C213.509 192.649 214.023 192.043 214.023 190.582Z" fill="white"/>
<path d="M415.286 60.164H84.714V47.504C84.714 44.207 87.387 41.534 90.684 41.534H409.315C412.612 41.534 415.285 44.207 415.285 47.504V60.164H415.286Z" fill="#263238"/>
<path d="M96.692 53.763C98.1633 53.763 99.356 52.5703 99.356 51.099C99.356 49.6277 98.1633 48.435 96.692 48.435C95.2207 48.435 94.028 49.6277 94.028 51.099C94.028 52.5703 95.2207 53.763 96.692 53.763Z" fill="#F5F5F5"/>
<path d="M104.98 53.763C106.451 53.763 107.644 52.5703 107.644 51.099C107.644 49.6277 106.451 48.435 104.98 48.435C103.509 48.435 102.316 49.6277 102.316 51.099C102.316 52.5703 103.509 53.763 104.98 53.763Z" fill="#F5F5F5"/>
<path d="M113.268 53.763C114.739 53.763 115.932 52.5703 115.932 51.099C115.932 49.6277 114.739 48.435 113.268 48.435C111.797 48.435 110.604 49.6277 110.604 51.099C110.604 52.5703 111.797 53.763 113.268 53.763Z" fill="#F5F5F5"/>
<path d="M440.863 453.36C450.168 453.437 458.217 446.89 460.016 437.76C463.197 421.616 467.291 399.037 467.42 373.682C467.499 358.133 464.023 338.439 459.212 323.652C452.185 302.052 437.149 283.025 415.306 276.79C386.938 268.693 376.671 271.801 356.555 282.35C334.673 293.825 328.751 315.351 305.974 324.927C283.859 334.224 257.191 331.05 237.031 344.052C219.298 355.488 210.65 377.462 209.946 398.551C209.5 411.927 210.71 421.506 213.185 431.886C215.93 443.396 226.32 453.264 238.153 453.362L440.863 453.36Z" fill="#E8505B"/>
<g opacity="0.4">
<path d="M440.863 453.36C450.168 453.437 458.217 446.89 460.016 437.76C463.197 421.616 467.291 399.037 467.42 373.682C467.499 358.133 464.023 338.439 459.212 323.652C452.185 302.052 437.149 283.025 415.306 276.79C386.938 268.693 376.671 271.801 356.555 282.35C334.673 293.825 328.751 315.351 305.974 324.927C283.859 334.224 257.191 331.05 237.031 344.052C219.298 355.488 210.65 377.462 209.946 398.551C209.5 411.927 210.71 421.506 213.185 431.886C215.93 443.396 226.32 453.264 238.153 453.362L440.863 453.36Z" fill="black"/>
</g>
<path d="M426.278 280.642C426.287 280.638 426.359 280.774 426.492 281.045C426.634 281.342 426.824 281.742 427.068 282.253C427.576 283.349 428.302 284.917 429.232 286.923C429.699 287.942 430.217 289.071 430.783 290.305C431.337 291.547 431.824 292.944 432.41 294.419C432.982 295.902 433.592 297.486 434.24 299.166C434.928 300.832 435.495 302.65 436.096 304.557C436.703 306.462 437.339 308.458 438.002 310.537C438.357 311.57 438.627 312.65 438.906 313.75C439.189 314.849 439.477 315.967 439.77 317.105C440.063 318.244 440.361 319.402 440.664 320.578C440.815 321.166 440.968 321.759 441.121 322.357C441.245 322.961 441.369 323.57 441.495 324.184C441.987 326.64 442.493 329.168 443.012 331.76C444.824 342.174 446.155 353.748 446.516 365.949C446.801 378.156 446.181 389.781 445.164 400.303C444.53 405.551 444.02 410.55 443.216 415.183C442.842 417.503 442.527 419.752 442.138 421.898C441.725 424.039 441.327 426.095 440.948 428.058C440.242 431.993 439.37 435.503 438.67 438.599C438.311 440.143 437.976 441.581 437.668 442.907C437.319 444.218 437 445.418 436.711 446.501C436.134 448.634 435.684 450.302 435.369 451.468C435.215 452.012 435.095 452.439 435.006 452.756C434.921 453.045 434.873 453.192 434.863 453.189C434.853 453.186 434.883 453.034 434.949 452.74C435.025 452.42 435.126 451.988 435.256 451.438C435.546 450.266 435.961 448.59 436.492 446.446C436.765 445.361 437.068 444.158 437.399 442.843C437.693 441.515 438.011 440.074 438.353 438.528C439.022 435.428 439.865 431.916 440.545 427.981C440.912 426.019 441.296 423.964 441.696 421.823C442.073 419.678 442.375 417.431 442.739 415.113C443.521 410.484 444.013 405.491 444.631 400.251C445.617 389.746 446.22 378.146 445.935 365.967C445.575 353.794 444.263 342.25 442.485 331.857C441.975 329.27 441.478 326.747 440.995 324.295C440.872 323.683 440.75 323.075 440.629 322.471C440.478 321.874 440.328 321.282 440.18 320.695C439.883 319.52 439.591 318.364 439.303 317.227C439.016 316.09 438.734 314.973 438.456 313.875C438.183 312.777 437.92 311.697 437.571 310.665C436.922 308.587 436.3 306.592 435.705 304.687C435.118 302.78 434.566 300.962 433.892 299.294C433.261 297.612 432.665 296.026 432.108 294.541C431.538 293.062 431.066 291.662 430.528 290.415C429.98 289.176 429.478 288.041 429.025 287.018C428.139 284.995 427.447 283.413 426.962 282.307C426.741 281.786 426.567 281.378 426.439 281.075C426.323 280.791 426.269 280.646 426.278 280.642Z" fill="#263238"/>
<path d="M239.864 453.205L220.94 482.829L183.963 459.473C186.41 456.078 210.02 461.069 210.02 461.069L221.366 441.591L239.864 453.205Z" fill="#455A64"/>
<g opacity="0.6">
<path d="M222.465 466.688C223.057 467.336 223.043 468.453 222.421 469.071C221.798 469.689 220.662 469.685 220.059 469.048C219.456 468.411 219.431 467.069 220.119 466.525C220.807 465.98 222.141 466.058 222.574 466.822" fill="white"/>
</g>
<g opacity="0.6">
<path d="M220.94 482.829L222.731 479.769L186.608 458.52C186.608 458.52 184.509 458.197 183.963 459.473L220.94 482.829Z" fill="white"/>
</g>
<path d="M209.539 460.502C209.431 460.686 210.282 461.338 210.804 462.48C211.356 463.608 211.32 464.679 211.531 464.713C211.72 464.783 212.132 463.534 211.476 462.162C210.832 460.785 209.604 460.311 209.539 460.502Z" fill="#263238"/>
<path d="M204.647 459.656C204.495 459.805 205.083 460.606 205.214 461.757C205.379 462.904 205.012 463.828 205.197 463.933C205.349 464.069 206.142 463.09 205.952 461.662C205.774 460.233 204.76 459.486 204.647 459.656Z" fill="#263238"/>
<path d="M199.512 462.906C199.652 463.048 200.473 462.305 200.634 461.023C200.804 459.742 200.199 458.814 200.028 458.916C199.832 459 200.045 459.877 199.897 460.927C199.773 461.981 199.344 462.776 199.512 462.906Z" fill="#263238"/>
<path d="M212.617 456.349C212.589 456.561 213.574 456.836 214.551 457.549C215.542 458.243 216.12 459.087 216.312 458.992C216.499 458.927 216.146 457.769 214.983 456.945C213.828 456.112 212.618 456.152 212.617 456.349Z" fill="#263238"/>
<path d="M216.269 452.518C216.22 452.591 216.863 453.154 218.127 453.678C218.756 453.938 219.542 454.175 220.44 454.307C220.889 454.372 221.365 454.411 221.86 454.414C222.099 454.412 222.371 454.429 222.694 454.332C223.013 454.27 223.429 453.863 223.383 453.424C223.373 453.02 223.116 452.686 222.853 452.511C222.586 452.33 222.33 452.245 222.098 452.168C221.623 452.008 221.151 451.901 220.697 451.836C219.788 451.711 218.957 451.755 218.282 451.878C216.922 452.13 216.203 452.62 216.243 452.694C216.287 452.805 217.062 452.504 218.349 452.399C218.99 452.348 219.76 452.362 220.589 452.512C221.003 452.589 221.431 452.701 221.859 452.856C222.316 453.001 222.651 453.208 222.641 453.446C222.636 453.536 222.624 453.565 222.469 453.628C222.318 453.68 222.094 453.684 221.857 453.686C221.395 453.693 220.949 453.67 220.526 453.627C219.679 453.54 218.924 453.369 218.302 453.182C217.056 452.81 216.327 452.419 216.269 452.518Z" fill="#263238"/>
<path d="M216.34 452.926C216.386 452.994 217.153 452.573 217.958 451.446C218.355 450.885 218.739 450.144 218.986 449.259C219.107 448.816 219.192 448.338 219.224 447.837C219.238 447.335 219.283 446.678 218.633 446.156C218.276 445.911 217.791 446.005 217.533 446.184C217.253 446.357 217.093 446.556 216.914 446.743C216.573 447.132 216.314 447.561 216.125 447.99C215.744 448.851 215.653 449.709 215.708 450.402C215.825 451.817 216.443 452.508 216.496 452.457C216.614 452.405 216.204 451.658 216.233 450.388C216.247 449.762 216.383 449.01 216.746 448.278C216.926 447.912 217.161 447.553 217.456 447.229C217.762 446.872 218.11 446.649 218.232 446.782C218.418 446.895 218.543 447.389 218.497 447.798C218.477 448.25 218.414 448.684 218.322 449.092C218.132 449.907 217.829 450.61 217.513 451.167C216.879 452.282 216.26 452.836 216.34 452.926Z" fill="#263238"/>
<path d="M266.335 360.973L254.999 394.248L213.528 380.356C215.098 376.476 239.217 375.709 239.217 375.709L245.606 354.091L266.335 360.973Z" fill="#455A64"/>
<g opacity="0.6">
<path d="M252.642 378.207C253.371 378.695 253.623 379.784 253.165 380.532C252.707 381.281 251.603 381.547 250.865 381.071C250.128 380.596 249.785 379.298 250.323 378.606C250.862 377.913 252.176 377.672 252.778 378.31" fill="white"/>
</g>
<g opacity="0.6">
<path d="M254.998 394.247L256.01 390.849L215.87 378.8C215.87 378.8 213.755 378.985 213.528 380.355L254.998 394.247Z" fill="white"/>
</g>
<path d="M238.615 375.272C238.554 375.477 239.535 375.908 240.314 376.893C241.118 377.858 241.338 378.907 241.551 378.889C241.751 378.912 241.855 377.6 240.891 376.424C239.938 375.24 238.633 375.072 238.615 375.272Z" fill="#263238"/>
<path d="M233.662 375.614C233.55 375.795 234.312 376.433 234.712 377.52C235.145 378.595 235.008 379.579 235.213 379.638C235.393 379.734 235.93 378.594 235.406 377.253C234.894 375.906 233.731 375.422 233.662 375.614Z" fill="#263238"/>
<path d="M229.448 379.992C229.618 380.097 230.238 379.179 230.09 377.896C229.951 376.611 229.142 375.854 229 375.994C228.83 376.122 229.245 376.923 229.351 377.979C229.481 379.032 229.253 379.905 229.448 379.992Z" fill="#263238"/>
<path d="M240.617 370.507C240.64 370.72 241.663 370.752 242.781 371.213C243.909 371.651 244.671 372.334 244.835 372.196C245.001 372.089 244.383 371.048 243.058 370.523C241.737 369.988 240.571 370.315 240.617 370.507Z" fill="#263238"/>
<path d="M243.253 365.917C243.223 366 243.981 366.393 245.334 366.602C246.007 366.705 246.827 366.748 247.73 366.662C248.181 366.619 248.653 366.544 249.135 366.429C249.367 366.37 249.635 366.322 249.926 366.151C250.221 366.015 250.529 365.521 250.38 365.105C250.274 364.715 249.945 364.452 249.648 364.345C249.346 364.233 249.077 364.211 248.833 364.192C248.334 364.149 247.849 364.157 247.393 364.203C246.48 364.298 245.684 364.538 245.057 364.819C243.796 365.387 243.215 366.034 243.271 366.096C243.34 366.193 244.021 365.716 245.246 365.309C245.857 365.107 246.607 364.937 247.448 364.886C247.868 364.863 248.31 364.869 248.764 364.918C249.242 364.95 249.617 365.072 249.664 365.305C249.68 365.393 249.675 365.425 249.541 365.522C249.406 365.609 249.189 365.665 248.96 365.724C248.513 365.84 248.074 365.925 247.653 365.983C246.809 366.1 246.036 366.113 245.387 366.08C244.087 366.013 243.286 365.806 243.253 365.917Z" fill="#263238"/>
<path d="M243.42 366.296C243.481 366.351 244.126 365.76 244.64 364.474C244.892 363.835 245.089 363.024 245.119 362.105C245.131 361.646 245.1 361.161 245.012 360.667C244.906 360.176 244.794 359.528 244.038 359.175C243.633 359.022 243.184 359.228 242.976 359.464C242.745 359.698 242.637 359.93 242.508 360.154C242.269 360.613 242.12 361.091 242.038 361.552C241.873 362.479 241.988 363.334 242.206 363.995C242.657 365.341 243.421 365.866 243.46 365.804C243.562 365.725 242.987 365.098 242.713 363.857C242.578 363.246 242.531 362.483 242.71 361.685C242.798 361.287 242.94 360.882 243.15 360.498C243.363 360.079 243.647 359.779 243.797 359.879C244.004 359.945 244.244 360.394 244.296 360.803C244.384 361.246 244.426 361.683 244.433 362.101C244.442 362.937 244.315 363.693 244.141 364.308C243.79 365.543 243.32 366.228 243.42 366.296Z" fill="#263238"/>
<path d="M335.038 351.48C335.038 351.48 303.829 301.393 295.266 287.513C285.349 271.44 265.014 273.487 260.126 287.99C261.225 284.73 256.333 299.087 239.864 352.717L267.605 360.661L281.102 333.03L292.536 365.751L335.038 351.48Z" fill="#263238"/>
<path d="M340.908 348.858H283.545C274.426 348.858 265.847 352.79 259.907 359.485C257.899 361.749 256.477 364.471 255.586 367.363L213.608 445.723L240.444 460.54L290.584 388.963L318.612 389.296L380.965 350.371L340.908 348.858Z" fill="#263238"/>
<path d="M283.942 373.68C283.994 373.643 284.596 374.362 285.415 375.635C286.235 376.906 287.245 378.748 288.106 380.895C288.963 383.045 289.502 385.076 289.784 386.561C290.068 388.048 290.128 388.983 290.065 388.993C289.902 389.024 289.335 385.328 287.622 381.088C285.941 376.839 283.803 373.771 283.942 373.68Z" fill="#455A64"/>
<path d="M224.672 302.942L248.027 348.858H321.687L318.706 342.858L297.366 342.224L279.982 303.517C278.895 301.097 276.489 299.54 273.836 299.54H226.76C225.012 299.539 223.88 301.384 224.672 302.942Z" fill="#E0E0E0"/>
<path d="M262.356 323.255C262.356 324.918 261.008 326.267 259.344 326.267C257.68 326.267 256.332 324.919 256.332 323.255C256.332 321.591 257.68 320.243 259.344 320.243C261.008 320.243 262.356 321.592 262.356 323.255Z" fill="#263238"/>
<path d="M330.9 295.671L319.543 334.531L277.506 339.039V346.501L339.273 347.354L347.683 296.751L330.9 295.671Z" fill="#FFBE9D"/>
<path d="M411.67 270.186C409.219 259.105 392.665 254.885 385.206 254.869C374.798 254.847 375.74 254.21 365.511 256.051L364.162 256.008C333.058 254.745 329.481 297.466 329.481 297.466L343.658 298.623L339.915 328.053L329.057 348.884L388.786 348.786L392.131 300.157L417.14 299.501C417.14 299.501 414.15 281.405 411.67 270.186Z" fill="#E8505B"/>
<path d="M345.378 279.423C345.537 279.441 344.487 289.813 343.033 302.587C341.578 315.365 340.269 325.705 340.11 325.687C339.951 325.669 341.001 315.299 342.456 302.521C343.91 289.747 345.219 279.405 345.378 279.423Z" fill="#263238"/>
<g opacity="0.2">
<path d="M391.03 279.425C388.483 291.6 385.162 304.114 382.615 316.289C382.074 318.877 381.493 321.555 379.912 323.674C378.924 324.998 377.6 326.026 376.279 327.017C371.259 330.784 365.966 334.311 360.068 336.461C368.587 335.741 377.042 334.27 385.304 332.069C386.703 331.696 388.192 331.242 389.094 330.11C389.892 329.109 390.078 327.766 390.228 326.495C392.061 310.883 391.531 295.135 391.03 279.425Z" fill="black"/>
</g>
<path d="M308.504 333.602L327.022 331.376L340.07 339.932L389.968 327.972L391.429 300.126L413.826 299.575L413.304 332.252C413.082 342.773 404.338 351.102 393.818 350.81L320.735 348.786L317.633 342.567L301.953 342.101L308.504 333.602Z" fill="#FFBE9D"/>
<path d="M389.969 327.972C389.974 327.992 389.651 328.089 389.031 328.257C388.361 328.431 387.455 328.667 386.315 328.964C383.897 329.566 380.49 330.415 376.302 331.459C367.788 333.522 356.113 336.351 343.216 339.477C342.181 339.725 341.153 339.971 340.138 340.214L340.016 340.243L339.911 340.174C335.297 337.139 330.903 334.249 326.875 331.599L327.053 331.641C319.727 332.487 313.382 333.22 308.524 333.782L308.646 333.713C306.575 336.342 304.924 338.439 303.754 339.924C303.202 340.608 302.764 341.15 302.434 341.559C302.13 341.927 301.966 342.112 301.952 342.101C301.938 342.091 302.076 341.885 302.354 341.497C302.665 341.074 303.078 340.513 303.599 339.804C304.737 338.294 306.344 336.163 308.359 333.491L308.404 333.431L308.481 333.421C313.334 332.815 319.671 332.024 326.989 331.11L327.085 331.098L327.167 331.152C331.203 333.79 335.605 336.668 340.227 339.689L340.001 339.65C341.016 339.407 342.044 339.16 343.079 338.912C355.991 335.851 367.68 333.081 376.205 331.06C380.411 330.092 383.833 329.304 386.261 328.745C387.412 328.493 388.326 328.292 389.002 328.144C389.632 328.012 389.965 327.953 389.969 327.972Z" fill="#EB996E"/>
<path d="M319.253 338.91C319.253 339.07 316.032 339.2 312.06 339.2C311.61 339.198 311.172 339.197 310.744 339.195L310.929 339.127C308.363 341.275 306.358 342.824 306.266 342.716C306.174 342.608 308.026 340.878 310.559 338.692L310.637 338.624H310.744C311.172 338.622 311.61 338.621 312.06 338.619C316.033 338.619 319.253 338.75 319.253 338.91Z" fill="#EB996E"/>
<path d="M398.69 332.628C398.537 332.722 397.576 330.383 395.055 328.833C392.567 327.229 390.042 327.376 390.061 327.197C390.054 327.132 390.666 326.989 391.671 327.071C392.671 327.148 394.052 327.52 395.364 328.342C396.672 329.169 397.605 330.254 398.107 331.122C398.616 331.991 398.752 332.605 398.69 332.628Z" fill="#EB996E"/>
<path d="M417.144 299.727C415.762 299.778 413.921 299.846 411.691 299.928C407.086 300.072 400.723 300.231 393.695 300.371C392.921 300.386 392.155 300.401 391.436 300.415L391.152 300.42L391.141 300.14C390.888 293.615 391.004 287.813 391.127 283.64C391.192 281.554 391.271 279.876 391.342 278.719C391.413 277.563 391.47 276.928 391.508 276.93C391.546 276.931 391.561 277.568 391.557 278.726C391.548 279.977 391.536 281.633 391.521 283.648C391.501 287.816 391.455 293.621 391.72 300.111L391.425 299.837C392.144 299.822 392.91 299.807 393.684 299.791C400.712 299.651 407.076 299.557 411.683 299.518C413.915 299.511 415.757 299.506 417.14 299.502C418.428 299.51 415.141 299.654 417.144 299.727Z" fill="#263238"/>
<path d="M378.658 299.903C378.69 299.92 378.434 300.43 377.944 301.341C377.704 301.799 377.397 302.352 377.001 302.971C376.61 303.593 376.19 304.318 375.647 305.067C374.616 306.604 373.263 308.349 371.65 310.191C370.013 312.011 368.102 313.916 365.94 315.739C363.762 317.544 361.549 319.088 359.467 320.377C357.368 321.638 355.41 322.661 353.715 323.403C352.881 323.804 352.093 324.09 351.412 324.364C350.733 324.644 350.134 324.848 349.641 325.003C348.658 325.324 348.111 325.485 348.1 325.451C348.089 325.417 348.614 325.191 349.571 324.813C350.052 324.629 350.637 324.399 351.302 324.094C351.969 323.795 352.742 323.488 353.56 323.068C355.224 322.288 357.147 321.24 359.215 319.968C361.265 318.668 363.449 317.128 365.606 315.339C367.748 313.533 369.65 311.657 371.293 309.87C372.911 308.061 374.284 306.354 375.346 304.855C375.904 304.124 376.344 303.417 376.756 302.814C377.173 302.213 377.504 301.678 377.77 301.237C378.311 300.363 378.627 299.886 378.658 299.903Z" fill="#263238"/>
<path d="M410.576 268.127C410.575 268.145 410.324 268.148 409.846 268.137C409.318 268.119 408.624 268.095 407.76 268.065C405.89 267.994 403.285 267.896 400.09 267.775C393.614 267.554 384.662 267.377 374.777 267.511C364.889 267.651 355.945 268.076 349.477 268.477C346.287 268.687 343.685 268.857 341.819 268.98C340.955 269.034 340.263 269.077 339.736 269.11C339.259 269.134 339.008 269.138 339.006 269.12C339.004 269.102 339.252 269.063 339.726 269.005C340.251 268.947 340.941 268.872 341.802 268.777C343.605 268.586 346.219 268.355 349.452 268.109C355.918 267.614 364.87 267.13 374.77 266.99C384.666 266.856 393.627 267.091 400.105 267.407C403.344 267.563 405.963 267.722 407.771 267.863C408.634 267.933 409.326 267.99 409.852 268.033C410.328 268.077 410.577 268.109 410.576 268.127Z" fill="#FAFAFA"/>
<path d="M344.116 288.469C344.116 288.613 341.18 288.729 337.559 288.729C333.937 288.729 331.001 288.612 331.001 288.469C331.001 288.326 333.936 288.209 337.559 288.209C341.18 288.209 344.116 288.325 344.116 288.469Z" fill="#FAFAFA"/>
<path d="M390.903 290.731C390.905 290.749 390.745 290.784 390.438 290.834C390.07 290.887 389.626 290.952 389.093 291.029C387.923 291.19 386.227 291.389 384.127 291.607C379.928 292.043 374.112 292.509 367.674 292.762C361.234 293.011 355.398 292.998 351.179 292.89C349.069 292.836 347.362 292.77 346.184 292.7C345.646 292.664 345.198 292.635 344.827 292.61C344.517 292.584 344.355 292.561 344.355 292.543C344.356 292.525 344.519 292.513 344.83 292.505C345.202 292.503 345.65 292.5 346.189 292.497C347.452 292.503 349.138 292.511 351.183 292.521C355.399 292.535 361.224 292.49 367.653 292.241C374.08 291.989 379.89 291.582 384.092 291.24C386.131 291.071 387.811 290.932 389.07 290.828C389.608 290.789 390.055 290.757 390.425 290.73C390.737 290.713 390.901 290.713 390.903 290.731Z" fill="#FAFAFA"/>
<path d="M414.952 286.641C414.965 286.784 409.633 287.377 403.045 287.965C396.454 288.553 391.103 288.914 391.09 288.77C391.077 288.627 396.408 288.034 402.998 287.446C409.587 286.858 414.939 286.498 414.952 286.641Z" fill="#FAFAFA"/>
<path d="M363.094 317.08C363.096 317.149 361.894 317.257 359.947 317.334C358 317.411 355.307 317.446 352.334 317.376C349.36 317.305 346.671 317.141 344.73 316.972C342.789 316.803 341.593 316.638 341.599 316.569C341.605 316.495 342.809 316.53 344.753 316.605C346.697 316.68 349.38 316.785 352.346 316.856C355.311 316.926 357.996 316.949 359.941 316.967C361.887 316.984 363.092 317.006 363.094 317.08Z" fill="#FAFAFA"/>
<path d="M390.563 317.939C390.568 317.975 390.166 318.06 389.433 318.185C388.701 318.312 387.638 318.464 386.321 318.627C383.687 318.955 380.031 319.29 375.982 319.449C371.931 319.605 368.26 319.554 365.608 319.431C364.282 319.371 363.21 319.301 362.471 319.232C361.732 319.165 361.324 319.111 361.326 319.075C361.328 319.039 361.739 319.025 362.481 319.03C363.333 319.039 364.381 319.05 365.619 319.064C368.267 319.092 371.925 319.085 375.962 318.929C379.997 318.771 383.645 318.494 386.283 318.261C387.516 318.152 388.56 318.059 389.409 317.984C390.147 317.921 390.559 317.903 390.563 317.939Z" fill="#FAFAFA"/>
<path d="M347.223 337.078C347.205 337.209 344.826 336.906 342.105 335.799C339.377 334.705 337.456 333.27 337.534 333.164C337.617 333.033 339.628 334.246 342.3 335.316C344.965 336.401 347.254 336.926 347.223 337.078Z" fill="#FAFAFA"/>
<path d="M372.159 200.777L371.209 200.779C361.65 200.798 353.709 207.96 352.961 217.239C352.265 225.87 351.609 235.413 351.677 240.042C351.819 249.627 361.667 251.098 361.667 251.098L361.304 259.615C361.088 265.974 365.984 271.344 372.335 271.716C378.848 272.097 384.419 267.089 384.731 260.573L386.773 220.078C387.633 210.124 382.402 201.339 372.159 200.777Z" fill="#FFBE9D"/>
<path d="M361.586 251.084C361.586 251.084 367.873 251.44 374.476 247.383C374.476 247.383 371.457 254.287 361.633 253.444L361.586 251.084Z" fill="#EB996E"/>
<path d="M356.451 223.191C356.426 223.914 357.034 224.53 357.809 224.569C358.582 224.608 359.231 224.055 359.255 223.332C359.28 222.609 358.672 221.992 357.898 221.953C357.124 221.914 356.476 222.468 356.451 223.191Z" fill="#263238"/>
<path d="M355.087 221.925C355.262 222.103 356.325 221.333 357.838 221.334C359.349 221.314 360.461 222.069 360.624 221.889C360.705 221.809 360.526 221.487 360.042 221.145C359.565 220.805 358.753 220.474 357.811 220.48C356.869 220.487 356.077 220.826 355.622 221.173C355.158 221.521 355.001 221.845 355.087 221.925Z" fill="#263238"/>
<path d="M370.574 223.639C370.549 224.362 371.158 224.978 371.933 225.017C372.706 225.056 373.355 224.503 373.379 223.78C373.404 223.057 372.795 222.44 372.022 222.401C371.246 222.362 370.598 222.916 370.574 223.639Z" fill="#263238"/>
<path d="M369.209 222.169C369.384 222.347 370.449 221.578 371.96 221.579C373.471 221.559 374.583 222.314 374.747 222.134C374.827 222.054 374.651 221.732 374.165 221.391C373.688 221.05 372.876 220.72 371.934 220.726C370.992 220.733 370.2 221.072 369.745 221.419C369.281 221.767 369.124 222.09 369.209 222.169Z" fill="#263238"/>
<path d="M364.489 233.104C364.496 233.02 363.555 232.864 362.031 232.677C361.645 232.639 361.279 232.565 361.213 232.308C361.121 232.036 361.282 231.631 361.468 231.192C361.829 230.281 362.207 229.326 362.604 228.326C364.182 224.245 365.323 220.89 365.154 220.829C364.984 220.769 363.568 224.027 361.991 228.108C361.611 229.114 361.248 230.074 360.903 230.991C360.758 231.419 360.507 231.904 360.706 232.468C360.81 232.749 361.094 232.952 361.342 233.017C361.59 233.09 361.807 233.094 361.998 233.105C363.533 233.183 364.484 233.188 364.489 233.104Z" fill="#263238"/>
<path d="M368.943 234.114C368.697 234.101 368.697 235.699 367.294 236.837C365.893 237.978 364.143 237.802 364.13 238.026C364.108 238.126 364.521 238.336 365.259 238.354C365.984 238.377 367.041 238.148 367.9 237.452C368.756 236.754 369.123 235.825 369.177 235.169C369.24 234.5 369.056 234.105 368.943 234.114Z" fill="#263238"/>
<path d="M369.553 216.398C369.703 216.798 371.213 216.605 372.988 216.81C374.767 216.98 376.2 217.483 376.434 217.124C376.539 216.952 376.288 216.576 375.709 216.189C375.135 215.803 374.219 215.437 373.153 215.323C372.087 215.212 371.112 215.378 370.466 215.636C369.816 215.893 369.489 216.208 369.553 216.398Z" fill="#263238"/>
<path d="M355.634 217.66C355.901 217.994 356.942 217.645 358.195 217.626C359.447 217.564 360.509 217.846 360.753 217.496C360.86 217.326 360.692 216.991 360.228 216.675C359.771 216.36 359.006 216.104 358.145 216.131C357.284 216.159 356.539 216.464 356.103 216.808C355.661 217.153 355.516 217.497 355.634 217.66Z" fill="#263238"/>
<path d="M385.3 227.177C385.468 227.106 392.059 225.216 391.858 231.769C391.657 238.322 384.942 236.774 384.936 236.586C384.93 236.397 385.3 227.177 385.3 227.177Z" fill="#FFBE9D"/>
<path d="M386.476 234.162C386.506 234.142 386.591 234.245 386.786 234.34C386.976 234.432 387.307 234.501 387.662 234.383C388.381 234.15 389.013 233.068 389.082 231.888C389.117 231.292 389.006 230.72 388.804 230.244C388.613 229.758 388.305 229.414 387.949 229.342C387.595 229.252 387.336 229.453 387.247 229.635C387.151 229.815 387.19 229.948 387.154 229.958C387.135 229.974 387.013 229.844 387.075 229.575C387.107 229.446 387.19 229.293 387.352 229.172C387.517 229.049 387.757 228.99 388.005 229.024C388.523 229.074 388.976 229.553 389.199 230.076C389.45 230.602 389.589 231.245 389.549 231.915C389.465 233.234 388.733 234.45 387.752 234.695C387.275 234.801 386.884 234.651 386.685 234.49C386.483 234.321 386.452 234.173 386.476 234.162Z" fill="#EB996E"/>
<path d="M380.889 207.696L352.825 208.298C353.697 206.413 355.256 204.903 356.948 203.654C360.595 200.961 365.079 199.279 369.655 199.201C374.232 199.123 383.549 204.551 386.864 207.625C389.517 210.084 389.5 212.212 389.5 212.212C389.921 215.755 387.885 219.783 387.075 223.261C386.657 225.055 385.851 230.483 385.851 230.483H385.85C384.304 230.478 383.729 229.279 383.964 227.791L384.253 221.951C384.253 221.951 378.994 218.312 381.486 211.651C381.888 211.121 382.741 208.688 380.889 207.696Z" fill="#263238"/>
<path d="M374.995 228.422C375.085 228.439 375.175 228.376 375.194 228.279C375.213 228.183 375.156 228.091 375.066 228.073C374.976 228.056 374.887 228.12 374.867 228.216C374.848 228.312 374.905 228.404 374.995 228.422Z" fill="#EB996E"/>
<path d="M372.104 227.789C372.194 227.806 372.286 227.731 372.308 227.621C372.33 227.511 372.275 227.407 372.185 227.39C372.095 227.373 372.003 227.448 371.981 227.559C371.959 227.668 372.014 227.772 372.104 227.789Z" fill="#EB996E"/>
<path d="M370.158 227.746C370.249 227.757 370.338 227.648 370.357 227.502C370.376 227.356 370.317 227.229 370.225 227.218C370.134 227.207 370.044 227.316 370.026 227.462C370.007 227.608 370.066 227.735 370.158 227.746Z" fill="#EB996E"/>
<path d="M373.578 230.191C373.67 230.191 373.745 230.144 373.745 230.087C373.745 230.03 373.67 229.983 373.578 229.983C373.486 229.983 373.411 230.03 373.411 230.087C373.411 230.145 373.486 230.191 373.578 230.191Z" fill="#EB996E"/>
<path d="M370.926 229.598C371.018 229.606 371.099 229.53 371.108 229.428C371.117 229.326 371.05 229.238 370.958 229.23C370.866 229.222 370.785 229.298 370.776 229.4C370.767 229.501 370.835 229.59 370.926 229.598Z" fill="#EB996E"/>
<path d="M357.129 228.022C357.219 228.039 357.309 227.973 357.329 227.874C357.349 227.775 357.292 227.68 357.202 227.663C357.112 227.646 357.022 227.712 357.002 227.811C356.982 227.91 357.039 228.004 357.129 228.022Z" fill="#EB996E"/>
<path d="M355.159 227.85C355.251 227.858 355.334 227.774 355.345 227.662C355.356 227.549 355.291 227.451 355.199 227.443C355.107 227.434 355.024 227.519 355.013 227.631C355.002 227.743 355.068 227.842 355.159 227.85Z" fill="#EB996E"/>
<path d="M358.869 228.066C358.959 228.083 359.045 228.035 359.061 227.958C359.077 227.881 359.016 227.804 358.926 227.787C358.836 227.77 358.75 227.818 358.734 227.895C358.718 227.972 358.778 228.048 358.869 228.066Z" fill="#EB996E"/>
<path d="M357.412 229.987C357.496 230.023 357.599 229.975 357.642 229.88C357.685 229.785 357.651 229.679 357.567 229.643C357.483 229.607 357.38 229.655 357.337 229.75C357.295 229.844 357.328 229.951 357.412 229.987Z" fill="#EB996E"/>
<path d="M355.73 229.663C355.819 229.639 355.874 229.561 355.854 229.488C355.833 229.415 355.745 229.376 355.656 229.399C355.567 229.423 355.512 229.501 355.533 229.574C355.552 229.647 355.641 229.686 355.73 229.663Z" fill="#EB996E"/>
<path d="M387.049 207.999C387.765 205.606 387.052 202.94 385.474 200.976C383.896 199.013 381.318 197.852 378.759 197.955C377.448 198.007 376.146 198.369 374.842 198.23C372.414 197.972 370.541 196.076 368.29 195.156C364.781 193.721 360.317 195.025 358.199 198.104C357.345 199.345 356.785 200.879 355.477 201.66C354.346 202.336 352.921 202.28 351.651 202.652C349.082 203.405 347.322 206.062 347.455 208.672C347.589 211.282 349.466 213.671 351.935 214.693C354.404 215.716 357.346 215.43 359.691 214.16C361.808 213.013 363.704 211.056 366.127 211.125C368.636 211.197 370.828 213.5 373.29 213.023C374.581 212.772 375.575 211.805 376.52 210.913C377.465 210.021 378.552 209.113 379.866 209.037C381.18 208.962 381.864 210.719 381.394 211.916L387.049 207.999Z" fill="#263238"/>
<path d="M353.37 204.83C353.366 204.832 353.381 204.865 353.415 204.926C353.449 204.987 353.498 205.079 353.578 205.19C353.731 205.416 353.983 205.737 354.383 206.08C354.78 206.421 355.333 206.78 356.052 207.021C356.766 207.262 357.659 207.366 358.599 207.169C359.533 206.979 360.52 206.501 361.284 205.681C362.051 204.861 362.506 203.764 363.22 202.801C363.576 202.32 364.021 201.886 364.579 201.604C365.139 201.328 365.785 201.194 366.44 201.205C367.095 201.22 367.758 201.393 368.35 201.706C368.941 202.029 369.429 202.513 369.758 203.116C370.097 203.716 370.34 204.375 370.748 204.96C371.138 205.552 371.819 205.997 372.545 206.025C373.268 206.065 373.936 205.802 374.504 205.474C375.081 205.145 375.559 204.702 375.994 204.273C376.859 203.422 377.714 202.573 378.777 202.343C379.828 202.099 380.857 202.476 381.596 202.988C382.349 203.512 382.833 204.207 383.144 204.855C383.456 205.507 383.619 206.114 383.723 206.612C383.827 207.111 383.876 207.506 383.909 207.772C383.942 208.039 383.958 208.18 383.968 208.18C383.973 208.18 383.975 208.144 383.974 208.075C383.973 208.006 383.972 207.903 383.963 207.768C383.947 207.498 383.915 207.1 383.826 206.593C383.737 206.087 383.587 205.467 383.281 204.794C382.976 204.126 382.486 203.395 381.708 202.837C380.946 202.295 379.867 201.878 378.726 202.13C377.576 202.372 376.683 203.262 375.818 204.101C375.379 204.529 374.923 204.947 374.371 205.258C373.829 205.569 373.202 205.805 372.562 205.767C371.92 205.737 371.336 205.361 370.97 204.812C370.589 204.267 370.346 203.614 369.996 202.99C369.653 202.358 369.113 201.817 368.482 201.478C367.847 201.143 367.143 200.962 366.446 200.947C365.75 200.937 365.061 201.081 364.46 201.381C363.859 201.687 363.383 202.159 363.019 202.659C362.287 203.664 361.846 204.748 361.118 205.536C360.398 206.323 359.456 206.793 358.56 206.987C357.658 207.188 356.798 207.102 356.102 206.882C355.401 206.661 354.853 206.325 354.454 206.003C353.65 205.344 353.4 204.806 353.37 204.83Z" fill="#455A64"/>
<path d="M348.283 204.927C348.271 204.924 348.204 205.107 348.169 205.454C348.133 205.799 348.146 206.312 348.311 206.918C348.48 207.52 348.811 208.212 349.363 208.847C349.912 209.484 350.686 210.035 351.582 210.42C353.397 211.195 355.238 211.125 356.477 210.959C357.105 210.872 357.606 210.762 357.947 210.674C358.289 210.586 358.473 210.521 358.469 210.505C358.459 210.461 357.699 210.646 356.454 210.774C355.223 210.891 353.435 210.925 351.69 210.179C350.828 209.809 350.084 209.287 349.551 208.689C349.014 208.092 348.679 207.439 348.494 206.867C348.128 205.703 348.344 204.927 348.283 204.927Z" fill="#455A64"/>
<path d="M421.489 301.995C421.318 314.86 413.479 326.709 403.253 334.518C393.028 342.327 380.61 346.664 368.246 350.224C355.882 353.784 343.244 356.725 331.613 362.227C315.507 369.847 300.591 380.302 291.493 395.622C282.395 410.942 279.152 431.065 280.171 448.854L416.952 435.177L424.443 357.433L421.489 301.995Z" fill="#E8505B"/>
<path d="M298.909 384.712C298.923 384.723 298.801 384.915 298.557 385.27C298.277 385.665 297.916 386.174 297.469 386.805C296.989 387.466 296.395 388.269 295.782 389.254C295.168 390.238 294.386 391.304 293.685 392.585C292.954 393.847 292.128 395.214 291.379 396.758C290.563 398.267 289.825 399.943 289.044 401.704C287.555 405.256 286.156 409.264 285.07 413.578C284.01 417.9 283.366 422.097 282.958 425.93C282.783 427.85 282.619 429.676 282.567 431.391C282.459 433.104 282.467 434.702 282.451 436.162C282.411 437.622 282.495 438.941 282.508 440.101C282.521 441.261 282.582 442.259 282.628 443.074C282.663 443.847 282.692 444.47 282.714 444.954C282.728 445.384 282.727 445.611 282.709 445.613C282.691 445.615 282.657 445.391 282.61 444.963C282.563 444.48 282.502 443.858 282.426 443.088C282.349 442.273 282.258 441.276 282.217 440.113C282.176 438.951 282.066 437.629 282.082 436.164C282.074 434.7 282.045 433.095 282.135 431.374C282.168 429.651 282.316 427.815 282.479 425.884C282.863 422.029 283.496 417.803 284.564 413.453C285.657 409.111 287.08 405.08 288.603 401.515C289.401 399.748 290.158 398.068 290.996 396.559C291.766 395.015 292.615 393.651 293.37 392.395C294.095 391.12 294.902 390.063 295.541 389.091C296.18 388.118 296.799 387.329 297.305 386.685C297.785 386.077 298.173 385.586 298.474 385.206C298.746 384.871 298.895 384.701 298.909 384.712Z" fill="#263238"/>
<g opacity="0.4">
<path d="M421.489 301.995C421.318 314.86 413.479 326.709 403.253 334.518C393.028 342.327 380.61 346.664 368.246 350.224C355.882 353.784 343.244 356.725 331.613 362.227C315.507 369.847 300.591 380.302 291.493 395.622C282.395 410.942 279.152 431.065 280.171 448.854L416.952 435.177L424.443 357.433L421.489 301.995Z" fill="black"/>
</g>
<path d="M105.785 359.848C93.973 347.758 75.465 342.679 59.136 347.045C73.32 356.555 89.26 361.652 106.336 361.792" fill="#E8505B"/>
<path d="M89.963 303.819C91.907 290.073 86.565 274.609 76.272 264.617C75.932 278.241 81.684 293.571 89.963 303.819Z" fill="#E8505B"/>
<path d="M98.193 329.786C90.859 315.766 78.819 304.261 64.482 297.569C68.779 313.397 82.316 326.344 98.319 329.932" fill="#E8505B"/>
<path d="M99.897 334.796C91.594 335.029 83.192 334.737 75.163 332.612C67.133 330.487 59.443 326.404 54.1 320.044C70.252 320.062 86.365 324.981 99.773 333.987" fill="#E8505B"/>
<path d="M95.683 318.293C99.897 302.498 106.851 291.572 119.266 282.72C120.205 290.405 118.316 298.405 114.038 304.858C109.76 311.311 103.128 316.166 95.683 318.293Z" fill="#E8505B"/>
<path d="M127.023 345.533C127.241 336.354 121.325 327.335 112.819 323.878C113.509 332.034 119.917 341.47 127.023 345.533Z" fill="#E8505B"/>
<path d="M130.99 332.215C131.933 319.021 141.308 306.814 153.812 302.498C150.945 315.697 143.313 326.685 130.99 332.215Z" fill="#E8505B"/>
<path d="M125.012 355.849C127.94 351.661 132.718 349.056 137.662 347.762C142.606 346.469 147.771 346.354 152.881 346.247C145.988 353.83 135.639 358.141 125.401 357.692" fill="#E8505B"/>
<path d="M119.078 389.516C128.289 386.673 138.554 387.408 147.265 391.535C155.976 395.662 163.048 403.139 166.682 412.067C149.39 408.785 132.326 401.105 119.078 389.516Z" fill="#E8505B"/>
<path d="M100.099 377.815C102.972 386.307 102.42 396.57 96.034 403.889C93.436 395.176 94.972 385.325 100.099 377.815Z" fill="#E8505B"/>
<path d="M88.883 373.099C88.084 384.017 81.103 394.272 71.239 399.02C70.749 399.256 70.182 399.482 69.679 399.277C68.901 398.96 68.83 397.898 68.926 397.063C70.176 386.184 78.236 375.662 88.883 373.099Z" fill="#E8505B"/>
<path d="M81.555 371.996C76.697 377.245 69.614 380.362 62.462 380.399C55.311 380.435 48.196 377.391 43.285 372.192C55.45 370.86 69.486 369.972 81.555 371.996Z" fill="#E8505B"/>
<path d="M79.734 274.748C79.727 274.751 79.764 274.872 79.846 275.104C79.937 275.356 80.06 275.697 80.217 276.133C80.561 277.057 81.054 278.38 81.684 280.072C82.339 281.776 83.094 283.877 83.969 286.318C84.409 287.538 84.88 288.842 85.378 290.223C85.858 291.613 86.365 293.082 86.897 294.623C89.052 300.783 91.445 308.176 94.029 316.408C96.565 324.655 99.23 333.759 101.851 343.364C104.437 352.982 106.729 362.189 108.68 370.595C110.576 379.012 112.206 386.611 113.384 393.03C113.686 394.632 113.974 396.159 114.247 397.604C114.493 399.052 114.725 400.418 114.943 401.697C115.384 404.251 115.761 406.452 116.014 408.259C116.288 410.044 116.502 411.439 116.652 412.413C116.727 412.87 116.786 413.227 116.83 413.492C116.873 413.735 116.898 413.858 116.906 413.857C116.914 413.856 116.904 413.73 116.877 413.485C116.845 413.219 116.801 412.859 116.745 412.4C116.616 411.423 116.43 410.023 116.193 408.232C115.967 406.42 115.616 404.214 115.199 401.654C114.993 400.373 114.772 399.003 114.538 397.552C114.275 396.104 113.998 394.575 113.707 392.969C112.57 386.538 110.972 378.927 109.098 370.499C107.169 362.083 104.887 352.866 102.3 343.242C99.677 333.631 96.999 324.525 94.438 316.28C91.83 308.051 89.404 300.663 87.208 294.514C86.665 292.976 86.147 291.51 85.657 290.123C85.146 288.745 84.664 287.445 84.213 286.228C83.314 283.795 82.535 281.702 81.853 280.008C81.187 278.328 80.667 277.016 80.304 276.099C80.129 275.67 79.992 275.335 79.89 275.087C79.794 274.86 79.741 274.745 79.734 274.748Z" fill="#263238"/>
<path d="M146.552 309.544C146.546 309.539 146.475 309.606 146.342 309.742C146.194 309.898 146.002 310.1 145.76 310.354C145.252 310.895 144.516 311.705 143.597 312.774C141.761 314.91 139.169 318.078 136.435 322.324C133.7 326.557 130.897 331.949 128.946 338.346C126.939 344.724 125.694 351.974 124.454 359.55C121.98 374.718 118.946 388.303 116.749 398.13C115.642 403.019 114.743 406.985 114.114 409.763C113.815 411.115 113.58 412.175 113.413 412.93C113.342 413.273 113.285 413.545 113.242 413.756C113.206 413.943 113.191 414.039 113.199 414.041C113.207 414.043 113.237 413.95 113.288 413.767C113.343 413.559 113.414 413.29 113.504 412.951C113.691 412.202 113.955 411.148 114.29 409.804C114.953 407.034 115.901 403.079 117.069 398.203C119.348 388.394 122.437 374.809 124.913 359.625C126.153 352.046 127.382 344.82 129.355 338.471C131.273 332.105 134.024 326.738 136.712 322.499C139.399 318.249 141.944 315.058 143.735 312.89C144.631 311.805 145.344 310.977 145.829 310.416C146.056 310.149 146.236 309.938 146.376 309.774C146.498 309.628 146.558 309.55 146.552 309.544Z" fill="#263238"/>
<path d="M77.921 371.479C77.92 371.495 78.071 371.522 78.359 371.559C78.7 371.597 79.116 371.643 79.619 371.698C79.899 371.725 80.202 371.755 80.529 371.787C80.864 371.837 81.223 371.891 81.605 371.949C82.377 372.063 83.257 372.177 84.216 372.389C84.699 372.485 85.203 372.585 85.726 372.69C86.246 372.822 86.786 372.958 87.344 373.1C88.47 373.354 89.633 373.767 90.873 374.141C93.318 374.999 95.951 376.101 98.575 377.535C101.19 378.988 103.505 380.663 105.481 382.332C106.44 383.2 107.365 384.013 108.131 384.876C108.95 385.688 109.614 386.531 110.228 387.295C110.875 388.035 111.325 388.802 111.78 389.434C112.242 390.064 112.574 390.646 112.843 391.125C113.1 391.56 113.313 391.919 113.488 392.215C113.64 392.462 113.727 392.589 113.742 392.582C113.756 392.575 113.697 392.435 113.572 392.173C113.417 391.865 113.229 391.491 113.001 391.037C112.755 390.542 112.443 389.941 111.998 389.293C111.56 388.642 111.124 387.854 110.488 387.094C109.885 386.31 109.228 385.445 108.412 384.612C107.65 383.729 106.725 382.896 105.762 382.008C103.779 380.301 101.443 378.596 98.8 377.127C96.148 375.678 93.483 374.576 91.008 373.733C89.753 373.366 88.576 372.965 87.437 372.725C86.873 372.592 86.327 372.463 85.801 372.338C85.272 372.243 84.762 372.152 84.274 372.065C83.305 371.872 82.415 371.78 81.636 371.69C81.251 371.646 80.889 371.604 80.55 371.566C80.221 371.548 79.915 371.532 79.632 371.517C79.126 371.496 78.707 371.479 78.363 371.465C78.074 371.459 77.921 371.463 77.921 371.479Z" fill="#263238"/>
<path d="M74.456 309.836C74.435 309.86 74.748 310.16 75.332 310.68C75.992 311.252 76.832 311.981 77.835 312.852C79.962 314.67 82.922 317.158 86.209 319.884C89.498 322.611 92.491 325.058 94.672 326.812C95.714 327.637 96.585 328.327 97.27 328.87C97.89 329.348 98.242 329.6 98.262 329.575C98.282 329.55 97.968 329.25 97.383 328.729C96.723 328.156 95.883 327.428 94.879 326.557C92.752 324.739 89.793 322.252 86.507 319.527C83.221 316.803 80.23 314.357 78.049 312.603C77.007 311.777 76.135 311.087 75.45 310.544C74.83 310.064 74.477 309.811 74.456 309.836Z" fill="#263238"/>
<path d="M71.466 325.927C71.43 326.05 77.817 328.046 85.731 330.384C93.648 332.723 100.092 334.519 100.129 334.395C100.165 334.272 93.779 332.277 85.863 329.938C77.948 327.6 71.502 325.804 71.466 325.927Z" fill="#263238"/>
<path d="M95.05 319.521C95.078 319.537 95.311 319.21 95.709 318.604C96.159 317.919 96.722 317.06 97.393 316.039C98.821 313.879 100.849 310.931 103.246 307.793C105.647 304.656 107.957 301.923 109.659 299.971C110.464 299.052 111.141 298.279 111.681 297.663C112.158 297.117 112.411 296.804 112.387 296.782C112.364 296.76 112.067 297.03 111.549 297.539C111.029 298.046 110.299 298.801 109.414 299.751C107.645 301.651 105.286 304.361 102.876 307.51C100.469 310.661 98.476 313.65 97.116 315.862C96.436 316.968 95.903 317.874 95.554 318.511C95.204 319.146 95.023 319.505 95.05 319.521Z" fill="#263238"/>
<path d="M117.232 328.452C117.176 328.492 117.777 329.416 118.731 330.916C119.686 332.416 120.98 334.502 122.321 336.857C123.661 339.214 124.792 341.393 125.594 342.98C126.396 344.567 126.884 345.554 126.947 345.527C127.002 345.503 126.62 344.467 125.891 342.838C125.163 341.209 124.072 338.996 122.726 336.627C121.378 334.26 120.033 332.191 119.005 330.734C117.977 329.275 117.281 328.417 117.232 328.452Z" fill="#263238"/>
<path d="M124.821 356.289C124.854 356.352 126.072 355.756 128.067 354.859C130.061 353.961 132.846 352.788 135.992 351.685C139.141 350.585 142.05 349.765 144.168 349.224C146.287 348.681 147.61 348.388 147.597 348.318C147.591 348.287 147.253 348.323 146.646 348.417C146.039 348.508 145.165 348.673 144.092 348.904C141.945 349.365 139.005 350.14 135.838 351.246C132.673 352.356 129.892 353.584 127.926 354.562C126.942 355.05 126.157 355.466 125.626 355.774C125.094 356.078 124.806 356.26 124.821 356.289Z" fill="#263238"/>
<path d="M118.847 389.567C118.843 389.583 118.979 389.628 119.241 389.7C119.557 389.781 119.936 389.877 120.391 389.993C121.468 390.242 122.902 390.572 124.639 390.973C128.22 391.805 133.209 392.846 138.514 394.635C143.82 396.441 148.372 398.738 151.459 400.716C153.006 401.702 154.212 402.572 155.025 403.199C155.842 403.822 156.287 404.178 156.311 404.15C156.321 404.138 156.223 404.034 156.025 403.848C155.824 403.666 155.538 403.384 155.138 403.058C154.356 402.384 153.173 401.468 151.637 400.441C148.574 398.377 144.004 396.013 138.664 394.195C133.317 392.392 128.308 391.402 124.707 390.651C122.957 390.309 121.512 390.027 120.427 389.815C119.416 389.628 118.854 389.535 118.847 389.567Z" fill="#263238"/>
<path d="M97.241 397.77C97.368 397.789 98.129 393.308 98.94 387.764C99.751 382.218 100.306 377.709 100.178 377.69C100.051 377.671 99.291 382.151 98.479 387.697C97.669 393.241 97.114 397.751 97.241 397.77Z" fill="#263238"/>
<path d="M74.748 389.602C74.802 389.642 75.559 388.707 76.775 387.195C77.991 385.682 79.675 383.597 81.579 381.33C83.485 379.063 85.249 377.045 86.53 375.587C87.811 374.128 88.601 373.222 88.552 373.176C88.529 373.154 88.301 373.352 87.908 373.728C87.514 374.104 86.96 374.663 86.288 375.365C84.942 376.769 83.134 378.758 81.223 381.031C79.314 383.304 77.666 385.427 76.515 386.995C75.939 387.779 75.484 388.421 75.181 388.873C74.877 389.324 74.722 389.583 74.748 389.602Z" fill="#263238"/>
<path d="M134.275 410.464V421.579H131.497L121.617 452.762H99.708L90.137 421.888L86.432 421.579V410.464H134.275Z" fill="#455A64"/>
<path d="M88.284 421.888C88.284 422.016 97.958 422.121 109.889 422.121C121.824 422.121 131.496 422.017 131.496 421.888C131.496 421.76 121.824 421.655 109.889 421.655C97.959 421.655 88.284 421.759 88.284 421.888Z" fill="#263238"/>
<path d="M72.527 350.394C72.521 350.426 73.021 350.559 73.931 350.774C74.918 351.012 76.213 351.324 77.777 351.701C81.018 352.504 85.468 353.722 90.296 355.343C95.124 356.97 99.407 358.688 102.474 360.007C103.947 360.652 105.168 361.185 106.098 361.592C106.952 361.971 107.432 362.167 107.446 362.138C107.46 362.109 107.008 361.858 106.176 361.428C105.346 360.995 104.128 360.404 102.607 359.705C99.567 358.306 95.288 356.533 90.444 354.901C85.6 353.275 81.119 352.102 77.852 351.38C76.218 351.017 74.89 350.752 73.967 350.596C73.045 350.436 72.533 350.363 72.527 350.394Z" fill="#263238"/>
<path d="M95.558 439.204C95.558 439.332 102.345 439.437 110.716 439.437C119.09 439.437 125.875 439.333 125.875 439.204C125.875 439.075 119.089 438.971 110.716 438.971C102.346 438.972 95.558 439.076 95.558 439.204Z" fill="#FAFAFA"/>
<path d="M94.706 436.626C94.706 436.754 101.899 436.859 110.77 436.859C119.644 436.859 126.835 436.755 126.835 436.626C126.835 436.498 119.644 436.393 110.77 436.393C101.899 436.394 94.706 436.498 94.706 436.626Z" fill="#FAFAFA"/>
</svg>
