<svg width="28" height="28" viewBox="0 0 28 28" fill="none" xmlns="http://www.w3.org/2000/svg">
<path d="M24.5 18.6667V22.1667C24.5 24.0998 19.7983 25.6667 14 25.6667C8.20167 25.6667 3.5 24.0998 3.5 22.1667V18.6667C3.5 20.5998 8.20167 22.1667 14 22.1667C19.7983 22.1667 24.5 20.5998 24.5 18.6667ZM14 17.5C8.20167 17.5 3.5 15.9332 3.5 14V17.5C3.5 19.4332 8.20167 21 14 21C19.7983 21 24.5 19.4332 24.5 17.5V14C24.5 15.9332 19.7983 17.5 14 17.5ZM14 2.33333C8.20167 2.33333 3.5 3.90017 3.5 5.83333V8.16667C3.5 10.0998 8.20167 11.6667 14 11.6667C19.7983 11.6667 24.5 10.0998 24.5 8.16667V5.83333C24.5 3.90017 19.7983 2.33333 14 2.33333ZM14 12.8333C8.20167 12.8333 3.5 11.2665 3.5 9.33333V12.8333C3.5 14.7665 8.20167 16.3333 14 16.3333C19.7983 16.3333 24.5 14.7665 24.5 12.8333V9.33333C24.5 11.2665 19.7983 12.8333 14 12.8333Z" fill="white"/>
</svg>
