<svg width="71" height="59" viewBox="0 0 71 59" fill="none" xmlns="http://www.w3.org/2000/svg">
<path d="M5.23627 47.8441V45.3858H65.7638V47.8441H5.23627ZM13.6557 42.9274C12.2929 42.9274 11.1559 42.548 10.2447 41.7892C9.33356 41.0304 8.87699 40.0856 8.87502 38.9548V14.9393C8.87502 13.8085 9.33159 12.8636 10.2447 12.1048C11.1579 11.346 12.2939 10.9674 13.6527 10.9691H57.3473C58.7081 10.9691 59.8441 11.3477 60.7553 12.1048C61.6665 12.862 62.123 13.8068 62.125 14.9393V38.9572C62.125 40.088 61.6685 41.032 60.7553 41.7892C59.8422 42.5464 58.7052 42.9258 57.3444 42.9274H13.6557ZM13.6557 40.4691H57.3473C57.8009 40.4691 58.218 40.3109 58.5987 39.9946C58.9793 39.6783 59.1687 39.3317 59.1667 38.9548V14.9393C59.1667 14.5623 58.9774 14.2157 58.5987 13.8994C58.218 13.5831 57.7999 13.425 57.3444 13.425H13.6557C13.2001 13.425 12.782 13.5831 12.4014 13.8994C12.0227 14.2141 11.8334 14.5607 11.8334 14.9393V38.9572C11.8334 39.3342 12.0227 39.68 12.4014 39.9946C12.78 40.3093 13.1971 40.4674 13.6527 40.4691" fill="white"/>
</svg>
