<svg width="65" height="39" viewBox="0 0 65 39" fill="none" xmlns="http://www.w3.org/2000/svg">
<g filter="url(#filter0_d_301_32)">
<path d="M9.16667 1.29167H29.8333C30.1759 1.29167 30.5044 1.42775 30.7467 1.66999C30.9889 1.91222 31.125 2.24076 31.125 2.58333V7.75C31.125 8.09257 30.9889 8.42111 30.7467 8.66335C30.5044 8.90558 30.1759 9.04167 29.8333 9.04167H9.16667C8.8241 9.04167 8.49555 8.90558 8.25332 8.66335C8.01109 8.42111 7.875 8.09257 7.875 7.75V2.58333C7.875 2.24076 8.01109 1.91222 8.25332 1.66999C8.49555 1.42775 8.8241 1.29167 9.16667 1.29167ZM9.16667 11.625H29.8333C30.1759 11.625 30.5044 11.7611 30.7467 12.0033C30.9889 12.2456 31.125 12.5741 31.125 12.9167V18.0833C31.125 18.4259 30.9889 18.7544 30.7467 18.9967C30.5044 19.2389 30.1759 19.375 29.8333 19.375H9.16667C8.8241 19.375 8.49555 19.2389 8.25332 18.9967C8.01109 18.7544 7.875 18.4259 7.875 18.0833V12.9167C7.875 12.5741 8.01109 12.2456 8.25332 12.0033C8.49555 11.7611 8.8241 11.625 9.16667 11.625ZM9.16667 21.9583H29.8333C30.1759 21.9583 30.5044 22.0944 30.7467 22.3367C30.9889 22.5789 31.125 22.9074 31.125 23.25V28.4167C31.125 28.7592 30.9889 29.0878 30.7467 29.33C30.5044 29.5722 30.1759 29.7083 29.8333 29.7083H9.16667C8.8241 29.7083 8.49555 29.5722 8.25332 29.33C8.01109 29.0878 7.875 28.7592 7.875 28.4167V23.25C7.875 22.9074 8.01109 22.5789 8.25332 22.3367C8.49555 22.0944 8.8241 21.9583 9.16667 21.9583ZM15.625 6.45833H16.9167V3.875H15.625V6.45833ZM15.625 16.7917H16.9167V14.2083H15.625V16.7917ZM15.625 27.125H16.9167V24.5417H15.625V27.125ZM10.4583 3.875V6.45833H13.0417V3.875H10.4583ZM10.4583 14.2083V16.7917H13.0417V14.2083H10.4583ZM10.4583 24.5417V27.125H13.0417V24.5417H10.4583Z" fill="white"/>
<g clip-path="url(#clip0_301_32)">
<path d="M57.75 19.25C57.132 19.253 56.5267 19.4255 56 19.7488L53.2963 17.0363C53.9254 16.1488 54.2633 15.0878 54.2633 14C54.2633 12.9122 53.9254 11.8512 53.2963 10.9638L56 8.25125C56.5267 8.57447 57.132 8.74698 57.75 8.75C58.4422 8.75 59.1189 8.54473 59.6945 8.16015C60.2701 7.77556 60.7187 7.22893 60.9836 6.58939C61.2485 5.94985 61.3178 5.24612 61.1828 4.56719C61.0477 3.88825 60.7144 3.26461 60.2249 2.77513C59.7354 2.28564 59.1118 1.9523 58.4328 1.81725C57.7539 1.6822 57.0502 1.75152 56.4106 2.01642C55.7711 2.28133 55.2244 2.72993 54.8399 3.30551C54.4553 3.88108 54.25 4.55777 54.25 5.25C54.253 5.86798 54.4255 6.47328 54.7488 7L52.0363 9.70375C51.1488 9.07462 50.0878 8.7367 49 8.7367C47.9122 8.7367 46.8512 9.07462 45.9638 9.70375L43.2513 7C43.5745 6.47328 43.747 5.86798 43.75 5.25C43.75 4.55777 43.5447 3.88108 43.1601 3.30551C42.7756 2.72993 42.2289 2.28133 41.5894 2.01642C40.9499 1.75152 40.2461 1.6822 39.5672 1.81725C38.8883 1.9523 38.2646 2.28564 37.7751 2.77513C37.2856 3.26461 36.9523 3.88825 36.8173 4.56719C36.6822 5.24612 36.7515 5.94985 37.0164 6.58939C37.2813 7.22893 37.7299 7.77556 38.3055 8.16015C38.8811 8.54473 39.5578 8.75 40.25 8.75C40.868 8.74698 41.4733 8.57447 42 8.25125L44.7038 10.9638C44.0746 11.8512 43.7367 12.9122 43.7367 14C43.7367 15.0878 44.0746 16.1488 44.7038 17.0363L42 19.7488C41.4733 19.4255 40.868 19.253 40.25 19.25C39.5578 19.25 38.8811 19.4553 38.3055 19.8399C37.7299 20.2244 37.2813 20.7711 37.0164 21.4106C36.7515 22.0502 36.6822 22.7539 36.8173 23.4328C36.9523 24.1118 37.2856 24.7354 37.7751 25.2249C38.2646 25.7144 38.8883 26.0477 39.5672 26.1828C40.2461 26.3178 40.9499 26.2485 41.5894 25.9836C42.2289 25.7187 42.7756 25.2701 43.1601 24.6945C43.5447 24.1189 43.75 23.4422 43.75 22.75C43.747 22.132 43.5745 21.5267 43.2513 21L45.9638 18.2963C46.8512 18.9254 47.9122 19.2633 49 19.2633C50.0878 19.2633 51.1488 18.9254 52.0363 18.2963L54.7488 21C54.4255 21.5267 54.253 22.132 54.25 22.75C54.25 23.4422 54.4553 24.1189 54.8399 24.6945C55.2244 25.2701 55.7711 25.7187 56.4106 25.9836C57.0502 26.2485 57.7539 26.3178 58.4328 26.1828C59.1118 26.0477 59.7354 25.7144 60.2249 25.2249C60.7144 24.7354 61.0477 24.1118 61.1828 23.4328C61.3178 22.7539 61.2485 22.0502 60.9836 21.4106C60.7187 20.7711 60.2701 20.2244 59.6945 19.8399C59.1189 19.4553 58.4422 19.25 57.75 19.25ZM57.75 3.5C58.0961 3.5 58.4345 3.60264 58.7223 3.79493C59.01 3.98722 59.2343 4.26053 59.3668 4.58031C59.4992 4.90008 59.5339 5.25194 59.4664 5.59141C59.3989 5.93088 59.2322 6.2427 58.9874 6.48744C58.7427 6.73218 58.4309 6.89885 58.0914 6.96638C57.7519 7.0339 57.4001 6.99924 57.0803 6.86679C56.7605 6.73434 56.4872 6.51004 56.2949 6.22225C56.1026 5.93446 56 5.59612 56 5.25C56 4.78587 56.1844 4.34075 56.5126 4.01256C56.8408 3.68438 57.2859 3.5 57.75 3.5ZM38.5 5.25C38.5 4.90388 38.6026 4.56554 38.7949 4.27775C38.9872 3.98997 39.2605 3.76567 39.5803 3.63321C39.9001 3.50076 40.2519 3.4661 40.5914 3.53363C40.9309 3.60115 41.2427 3.76782 41.4874 4.01256C41.7322 4.25731 41.8989 4.56913 41.9664 4.90859C42.0339 5.24806 41.9992 5.59993 41.8668 5.9197C41.7343 6.23947 41.51 6.51278 41.2222 6.70507C40.9345 6.89737 40.5961 7 40.25 7C39.7859 7 39.3408 6.81563 39.0126 6.48744C38.6844 6.15925 38.5 5.71413 38.5 5.25ZM40.25 24.5C39.9039 24.5 39.5655 24.3974 39.2778 24.2051C38.99 24.0128 38.7657 23.7395 38.6332 23.4197C38.5008 23.0999 38.4661 22.7481 38.5336 22.4086C38.6012 22.0691 38.7678 21.7573 39.0126 21.5126C39.2573 21.2678 39.5691 21.1012 39.9086 21.0336C40.2481 20.9661 40.5999 21.0008 40.9197 21.1332C41.2395 21.2657 41.5128 21.49 41.7051 21.7778C41.8974 22.0655 42 22.4039 42 22.75C42 23.2141 41.8156 23.6592 41.4874 23.9874C41.1592 24.3156 40.7141 24.5 40.25 24.5ZM49 17.5C48.3078 17.5 47.6311 17.2947 47.0555 16.9101C46.4799 16.5256 46.0313 15.9789 45.7664 15.3394C45.5015 14.6999 45.4322 13.9961 45.5673 13.3172C45.7023 12.6383 46.0356 12.0146 46.5251 11.5251C47.0146 11.0356 47.6383 10.7023 48.3172 10.5673C48.9961 10.4322 49.6999 10.5015 50.3394 10.7664C50.9789 11.0313 51.5256 11.4799 51.9101 12.0555C52.2947 12.6311 52.5 13.3078 52.5 14C52.5 14.9283 52.1313 15.8185 51.4749 16.4749C50.8185 17.1313 49.9283 17.5 49 17.5ZM57.75 24.5C57.4039 24.5 57.0655 24.3974 56.7778 24.2051C56.49 24.0128 56.2657 23.7395 56.1332 23.4197C56.0008 23.0999 55.9661 22.7481 56.0336 22.4086C56.1012 22.0691 56.2678 21.7573 56.5126 21.5126C56.7573 21.2678 57.0691 21.1012 57.4086 21.0336C57.7481 20.9661 58.0999 21.0008 58.4197 21.1332C58.7395 21.2657 59.0128 21.49 59.2051 21.7778C59.3974 22.0655 59.5 22.4039 59.5 22.75C59.5 23.2141 59.3156 23.6592 58.9874 23.9874C58.6592 24.3156 58.2141 24.5 57.75 24.5Z" fill="white"/>
</g>
</g>
<defs>
<filter id="filter0_d_301_32" x="0" y="0" width="65" height="39" filterUnits="userSpaceOnUse" color-interpolation-filters="sRGB">
<feFlood flood-opacity="0" result="BackgroundImageFix"/>
<feColorMatrix in="SourceAlpha" type="matrix" values="0 0 0 0 0 0 0 0 0 0 0 0 0 0 0 0 0 0 127 0" result="hardAlpha"/>
<feOffset dy="4"/>
<feGaussianBlur stdDeviation="2"/>
<feComposite in2="hardAlpha" operator="out"/>
<feColorMatrix type="matrix" values="0 0 0 0 0 0 0 0 0 0 0 0 0 0 0 0 0 0 0.25 0"/>
<feBlend mode="normal" in2="BackgroundImageFix" result="effect1_dropShadow_301_32"/>
<feBlend mode="normal" in="SourceGraphic" in2="effect1_dropShadow_301_32" result="shape"/>
</filter>
<clipPath id="clip0_301_32">
<rect width="28" height="28" fill="white" transform="translate(33)"/>
</clipPath>
</defs>
</svg>
